<svg width="24" height="24" viewBox="0 0 24 24" fill="none" xmlns="http://www.w3.org/2000/svg">
<path d="M16.0845 23.9999C15.8087 23.9999 15.5534 23.8468 15.4206 23.6119C15.2878 23.377 15.2878 23.0808 15.4308 22.8459L16.5032 21.0587C16.7177 20.691 17.1875 20.5787 17.5552 20.7932C17.9229 21.0076 18.0352 21.4774 17.8207 21.845L17.545 22.3046C20.3639 21.6408 22.478 19.108 22.478 16.085C22.478 15.6663 22.8253 15.3191 23.2441 15.3191C23.6628 15.3191 24.0101 15.6663 24.0101 16.085C23.9998 20.4459 20.4456 23.9999 16.0845 23.9999Z" fill="#0C0C0C"/>
<path d="M0.766003 8.68081C0.347255 8.68081 0 8.33357 0 7.91485C0 3.55402 3.55425 0 7.91536 0C8.19113 0 8.44646 0.153196 8.57924 0.388088C8.71201 0.622981 8.71201 0.919149 8.56902 1.15404L7.49662 2.94127C7.28214 3.30892 6.81232 3.42127 6.44464 3.20681C6.07696 2.99234 5.96461 2.52259 6.17909 2.15493L6.45485 1.69535C3.63596 2.35917 1.52179 4.89189 1.52179 7.91485C1.53201 8.33357 1.18475 8.68081 0.766003 8.68081Z" fill="#0C0C0C"/>
<path d="M9.3762 16.1979H6.50624C6.08749 16.1979 5.74023 15.8507 5.74023 15.432V13.1341C5.74023 12.7154 6.08749 12.3682 6.50624 12.3682H9.3762C10.3975 12.3682 11.2963 13.2669 11.2963 14.2882C11.2963 15.3299 10.4282 16.1979 9.3762 16.1979ZM7.27224 14.666H9.3762C9.59068 14.666 9.76431 14.4924 9.76431 14.2779C9.76431 14.1247 9.59068 13.8898 9.3762 13.8898H7.27224V14.666Z" fill="#0C0C0C"/>
<path d="M9.78323 18.4955H6.49452C6.07577 18.4955 5.72852 18.1483 5.72852 17.7296V15.4317C5.72852 15.013 6.07577 14.6658 6.49452 14.6658H9.78323C10.9271 14.6658 11.8668 15.5236 11.8668 16.5858C11.8668 17.6479 10.9373 18.4955 9.78323 18.4955ZM7.27073 16.9636H9.79344C10.1203 16.9636 10.345 16.7594 10.345 16.5755C10.345 16.3917 10.1203 16.1875 9.79344 16.1875H7.27073V16.9636Z" fill="#0C0C0C"/>
<path d="M8.34608 19.6398C7.92733 19.6398 7.58008 19.2926 7.58008 18.8739V17.7198C7.58008 17.3011 7.92733 16.9539 8.34608 16.9539C8.76483 16.9539 9.11208 17.3011 9.11208 17.7198V18.8739C9.11208 19.3028 8.76483 19.6398 8.34608 19.6398Z" fill="#0C0C0C"/>
<path d="M8.34608 13.8891C7.92733 13.8891 7.58008 13.5418 7.58008 13.1231V11.9691C7.58008 11.5504 7.92733 11.2031 8.34608 11.2031C8.76483 11.2031 9.11208 11.5504 9.11208 11.9691V13.1231C9.11208 13.5521 8.76483 13.8891 8.34608 13.8891Z" fill="#0C0C0C"/>
<path d="M8.5989 22.4987C4.69739 22.4987 1.53125 19.3225 1.53125 15.4315C1.53125 11.5405 4.70761 8.36426 8.5989 8.36426C8.78274 8.36426 8.94616 8.37449 9.13 8.3847C12.5923 8.65023 15.3908 11.4485 15.6461 14.8902C15.6563 15.1149 15.6666 15.2681 15.6666 15.4315C15.6768 19.3225 12.5004 22.4987 8.5989 22.4987ZM8.5989 9.886C5.5451 9.886 3.06326 12.3677 3.06326 15.4213C3.06326 18.4749 5.5451 20.9566 8.5989 20.9566C11.6527 20.9566 14.1448 18.4749 14.1448 15.4213C14.1448 15.2885 14.1346 15.1557 14.1243 15.023C13.9201 12.286 11.7242 10.1004 9.02787 9.89616C8.89509 9.89616 8.7521 9.886 8.5989 9.886Z" fill="#0C0C0C"/>
<path d="M15.4036 15.7076H14.9031C14.5048 15.7076 14.1678 15.4012 14.1371 15.0029C13.9329 12.2966 11.7472 10.111 9.04066 9.90679C8.64234 9.87615 8.33594 9.53913 8.33594 9.14083V8.64042C8.33594 4.73917 11.5123 1.57324 15.4138 1.57324C19.3153 1.57324 22.4815 4.74938 22.4815 8.64042C22.4815 12.5315 19.2949 15.7076 15.4036 15.7076ZM9.85773 8.46682C12.7379 8.98767 15.0461 11.2855 15.567 14.1757C18.5493 14.0838 20.9392 11.6327 20.9392 8.64042C20.9392 5.58682 18.4574 3.10515 15.4036 3.10515C12.4009 3.09494 9.94965 5.48471 9.85773 8.46682Z" fill="#0C0C0C"/>
</svg>
