<svg width="27" height="24" viewBox="0 0 27 24" fill="none" xmlns="http://www.w3.org/2000/svg">
<path d="M18.0532 24.0001H3.35445C2.29175 24.0001 1.30736 23.508 0.669746 22.6466C0.0209416 21.7741 -0.169216 20.6778 0.155187 19.6374L4.86461 4.50235C5.28968 3.09287 6.58731 2.13086 8.0639 2.13086H21.823C23.1766 2.13086 24.3959 2.93637 24.9105 4.18923C25.1901 4.83804 25.246 5.57635 25.0782 6.30346L21.3085 21.4384C20.9505 22.9486 19.6081 24.0001 18.0532 24.0001ZM8.07506 3.82C7.34796 3.82 6.68797 4.30108 6.47543 5.00581L1.76602 20.1409C1.60941 20.6667 1.69889 21.2148 2.03448 21.6622C2.34769 22.0873 2.83989 22.3334 3.36565 22.3334H18.0644C18.8363 22.3334 19.5075 21.8076 19.6864 21.0581L23.4562 5.91183C23.5457 5.54268 23.5234 5.17359 23.3779 4.84919C23.1095 4.21157 22.5166 3.8088 21.8342 3.8088H8.07506V3.82Z" fill="#292D32"/>
<path d="M22.9751 23.9999H17.628C17.1694 23.9999 16.7891 23.6196 16.7891 23.1609C16.7891 22.7023 17.1694 22.322 17.628 22.322H22.9751C23.4337 22.322 23.8588 22.1318 24.172 21.7963C24.4852 21.4607 24.6418 21.0132 24.6083 20.5546L23.5008 5.31887C23.4673 4.86023 23.8141 4.45747 24.2727 4.42391C24.7313 4.40154 25.134 4.73706 25.1676 5.1957L26.275 20.4316C26.3422 21.3488 26.0178 22.2661 25.3913 22.9373C24.7761 23.6196 23.8924 23.9999 22.9751 23.9999Z" fill="#292D32"/>
<path d="M10.558 6.52693C10.4909 6.52693 10.4238 6.51572 10.3567 6.50453C9.90924 6.39267 9.6296 5.94518 9.74146 5.48654L10.9048 0.654124C11.0167 0.206672 11.4641 -0.0730396 11.9228 0.0388233C12.3702 0.150686 12.6499 0.598176 12.538 1.05681L11.3747 5.88937C11.2852 6.2697 10.9384 6.52693 10.558 6.52693Z" fill="#292D32"/>
<path d="M18.051 6.53819C17.9951 6.53819 17.9279 6.53817 17.872 6.51579C17.4245 6.41512 17.1337 5.96765 17.2232 5.5202L18.2747 0.665384C18.3754 0.206746 18.8228 -0.0728616 19.2703 0.0166287C19.7177 0.106119 20.0086 0.564637 19.9191 1.01209L18.8676 5.86704C18.7893 6.26974 18.4425 6.53819 18.051 6.53819Z" fill="#292D32"/>
<path d="M17.29 12.8137H8.34092C7.88229 12.8137 7.50195 12.4334 7.50195 11.9747C7.50195 11.5161 7.88229 11.1357 8.34092 11.1357H17.29C17.7486 11.1357 18.1289 11.5161 18.1289 11.9747C18.1289 12.4334 17.7486 12.8137 17.29 12.8137Z" fill="#292D32"/>
<path d="M16.1728 17.2883H7.22374C6.7651 17.2883 6.38477 16.908 6.38477 16.4493C6.38477 15.9907 6.7651 15.6104 7.22374 15.6104H16.1728C16.6314 15.6104 17.0117 15.9907 17.0117 16.4493C17.0117 16.908 16.6314 17.2883 16.1728 17.2883Z" fill="#292D32"/>
</svg>
