<svg width="25" height="24" viewBox="0 0 25 24" fill="none" xmlns="http://www.w3.org/2000/svg">
<path d="M18.5684 24H5.85015C3.78344 24 1.89842 22.4102 1.55775 20.3662L0.0474633 11.3272C-0.191003 9.91914 0.490335 8.11362 1.61454 7.21653L9.48394 0.914137C11.0056 -0.312264 13.4016 -0.300897 14.9346 0.925503L22.804 7.21653C23.9169 8.11362 24.5982 9.91914 24.3711 11.3272L22.8608 20.3662C22.5201 22.3761 20.601 24 18.5684 24ZM12.1979 1.72041C11.5961 1.72041 10.9942 1.90206 10.5514 2.25408L2.68196 8.55647C2.03469 9.07883 1.59183 10.237 1.7281 11.0546L3.23839 20.0937C3.44279 21.286 4.63511 22.2967 5.85015 22.2967H18.5684C19.7834 22.2967 20.9758 21.286 21.1802 20.0823L22.6904 11.0433C22.8267 10.2257 22.3725 9.05611 21.7366 8.54511L13.8672 2.25408C13.413 1.90206 12.8111 1.72041 12.1979 1.72041Z" fill="#0C0C0C"/>
<path d="M12.2101 16.8337C10.1774 16.8337 8.51953 15.1758 8.51953 13.1432C8.51953 11.1105 10.1774 9.45264 12.2101 9.45264C14.2427 9.45264 15.9006 11.1105 15.9006 13.1432C15.9006 15.1758 14.2427 16.8337 12.2101 16.8337ZM12.2101 11.156C11.12 11.156 10.2229 12.0531 10.2229 13.1432C10.2229 14.2333 11.12 15.1304 12.2101 15.1304C13.3002 15.1304 14.1973 14.2333 14.1973 13.1432C14.1973 12.0531 13.3002 11.156 12.2101 11.156Z" fill="#0C0C0C"/>
</svg>
