<svg width="24" height="24" viewBox="0 0 24 24" fill="none" xmlns="http://www.w3.org/2000/svg">
<path d="M12 24C5.38047 24 0 18.6195 0 12C0 5.38047 5.38047 0 12 0C18.6195 0 24 5.38047 24 12C24 18.6195 18.6195 24 12 24ZM12 1.67442C6.30698 1.67442 1.67442 6.30698 1.67442 12C1.67442 17.693 6.30698 22.3256 12 22.3256C17.693 22.3256 22.3256 17.693 22.3256 12C22.3256 6.30698 17.693 1.67442 12 1.67442Z" fill="#292D32"/>
<path d="M8.65224 22.8837H7.53596C7.07829 22.8837 6.69875 22.5041 6.69875 22.0464C6.69875 21.5888 7.05596 21.2204 7.51364 21.2092C5.76108 15.226 5.76108 8.77389 7.51364 2.79063C7.05596 2.77947 6.69875 2.41109 6.69875 1.95342C6.69875 1.49575 7.07829 1.11621 7.53596 1.11621H8.65224C8.92015 1.11621 9.17689 1.25016 9.33317 1.46226C9.48945 1.68551 9.5341 1.96458 9.4448 2.22133C7.3462 8.5283 7.3462 15.4716 9.4448 21.7897C9.5341 22.0464 9.48945 22.3255 9.33317 22.5488C9.17689 22.7497 8.92015 22.8837 8.65224 22.8837Z" fill="#292D32"/>
<path d="M15.3496 22.8836C15.2603 22.8836 15.171 22.8724 15.0817 22.8389C14.6463 22.6938 14.4008 22.2138 14.557 21.7785C16.6556 15.4715 16.6556 8.52825 14.557 2.21011C14.4119 1.77476 14.6463 1.29476 15.0817 1.14964C15.5282 1.00453 15.997 1.23895 16.1422 1.6743C18.3636 8.32732 18.3636 15.6501 16.1422 22.292C16.0305 22.6603 15.6956 22.8836 15.3496 22.8836Z" fill="#292D32"/>
<path d="M12.0009 17.8046C8.88649 17.8046 5.78323 17.3693 2.79161 16.4874C2.78044 16.9339 2.41207 17.3023 1.9544 17.3023C1.49672 17.3023 1.11719 16.9228 1.11719 16.4651V15.3488C1.11719 15.0809 1.25114 14.8242 1.46323 14.6679C1.68649 14.5116 1.96556 14.467 2.2223 14.5563C8.52928 16.6549 15.4837 16.6549 21.7907 14.5563C22.0474 14.467 22.3265 14.5116 22.5497 14.6679C22.773 14.8242 22.8958 15.0809 22.8958 15.3488V16.4651C22.8958 16.9228 22.5163 17.3023 22.0586 17.3023C21.6009 17.3023 21.2325 16.9451 21.2214 16.4874C18.2186 17.3693 15.1153 17.8046 12.0009 17.8046Z" fill="#292D32"/>
<path d="M22.0457 9.48844C21.9564 9.48844 21.8671 9.47728 21.7778 9.44379C15.4708 7.34519 8.51638 7.34519 2.2094 9.44379C1.76289 9.58891 1.29405 9.35449 1.14894 8.91914C1.01498 8.47263 1.2494 8.00379 1.68475 7.85867C8.33777 5.63728 15.6606 5.63728 22.3024 7.85867C22.7378 8.00379 22.9834 8.48379 22.8271 8.91914C22.7266 9.26518 22.3917 9.48844 22.0457 9.48844Z" fill="#292D32"/>
</svg>
