<svg width="14" height="13" viewBox="0 0 14 13" fill="none" xmlns="http://www.w3.org/2000/svg">
<path d="M9.69231 12.5H3.53846C0.824616 12.5 0 11.6754 0 8.96154V4.03846C0 1.32462 0.824616 0.5 3.53846 0.5H9.69231C12.4062 0.5 13.2308 1.32462 13.2308 4.03846V8.96154C13.2308 11.6754 12.4062 12.5 9.69231 12.5ZM3.53846 1.42308C1.33538 1.42308 0.923077 1.84154 0.923077 4.03846V8.96154C0.923077 11.1585 1.33538 11.5769 3.53846 11.5769H9.69231C11.8954 11.5769 12.3077 11.1585 12.3077 8.96154V4.03846C12.3077 1.84154 11.8954 1.42308 9.69231 1.42308H3.53846Z" fill="#FCFCFC"/>
<path d="M10.9232 4.50023H7.8463C7.594 4.50023 7.38477 4.29099 7.38477 4.03869C7.38477 3.78638 7.594 3.57715 7.8463 3.57715H10.9232C11.1755 3.57715 11.3848 3.78638 11.3848 4.03869C11.3848 4.29099 11.1755 4.50023 10.9232 4.50023Z" fill="#FCFCFC"/>
<path d="M10.9231 6.96116H8.46154C8.20923 6.96116 8 6.75193 8 6.49962C8 6.24732 8.20923 6.03809 8.46154 6.03809H10.9231C11.1754 6.03809 11.3846 6.24732 11.3846 6.49962C11.3846 6.75193 11.1754 6.96116 10.9231 6.96116Z" fill="#FCFCFC"/>
<path d="M10.9228 9.42308H9.69201C9.4397 9.42308 9.23047 9.21385 9.23047 8.96154C9.23047 8.70923 9.4397 8.5 9.69201 8.5H10.9228C11.1751 8.5 11.3843 8.70923 11.3843 8.96154C11.3843 9.21385 11.1751 9.42308 10.9228 9.42308Z" fill="#FCFCFC"/>
<path d="M4.4621 6.52479C3.59441 6.52479 2.88672 5.8171 2.88672 4.94941C2.88672 4.08172 3.59441 3.37402 4.4621 3.37402C5.3298 3.37402 6.03749 4.08172 6.03749 4.94941C6.03749 5.8171 5.3298 6.52479 4.4621 6.52479ZM4.4621 4.2971C4.10518 4.2971 3.8098 4.59248 3.8098 4.94941C3.8098 5.30633 4.10518 5.60172 4.4621 5.60172C4.81903 5.60172 5.11441 5.30633 5.11441 4.94941C5.11441 4.59248 4.81903 4.2971 4.4621 4.2971Z" fill="#FCFCFC"/>
<path d="M6.61548 9.62586C6.38163 9.62586 6.17855 9.4474 6.15394 9.2074C6.08625 8.54278 5.55086 8.0074 4.88009 7.94586C4.59702 7.92124 4.31394 7.92124 4.03086 7.94586C3.36009 8.0074 2.82471 8.53663 2.75702 9.2074C2.7324 9.45971 2.50471 9.65047 2.2524 9.61971C2.00009 9.59509 1.81548 9.3674 1.84009 9.11509C1.95086 8.0074 2.83086 7.1274 3.94471 7.02894C4.28317 6.99817 4.62778 6.99817 4.96625 7.02894C6.07394 7.13355 6.96009 8.01355 7.07086 9.11509C7.09548 9.3674 6.91086 9.59509 6.65855 9.61971C6.64625 9.62586 6.62778 9.62586 6.61548 9.62586Z" fill="#FCFCFC"/>
</svg>
