<svg width="24" height="24" viewBox="0 0 24 24" fill="none" xmlns="http://www.w3.org/2000/svg">
<path d="M14.6789 21.7675H9.32079C4.42033 21.7675 2.23242 19.5796 2.23242 14.6792V9.32104C2.23242 4.42057 4.42033 2.23267 9.32079 2.23267H14.6789C19.5794 2.23267 21.7673 4.42057 21.7673 9.32104V14.6792C21.7673 19.5796 19.5794 21.7675 14.6789 21.7675ZM9.32079 3.90708C5.32452 3.90708 3.90684 5.32476 3.90684 9.32104V14.6792C3.90684 18.6755 5.32452 20.0931 9.32079 20.0931H14.6789C18.6752 20.0931 20.0929 18.6755 20.0929 14.6792V9.32104C20.0929 5.32476 18.6752 3.90708 14.6789 3.90708H9.32079Z" fill="#292D32"/>
<path d="M13.6751 18.4185H10.3262C7.08901 18.4185 5.58203 16.9115 5.58203 13.6743V10.3255C5.58203 7.08828 7.08901 5.5813 10.3262 5.5813H13.6751C16.9123 5.5813 18.4192 7.08828 18.4192 10.3255V13.6743C18.4192 16.9115 16.9123 18.4185 13.6751 18.4185ZM10.3262 7.25572C8.00436 7.25572 7.25645 8.00362 7.25645 10.3255V13.6743C7.25645 15.9962 8.00436 16.7441 10.3262 16.7441H13.6751C15.9969 16.7441 16.7448 15.9962 16.7448 13.6743V10.3255C16.7448 8.00362 15.9969 7.25572 13.6751 7.25572H10.3262Z" fill="#292D32"/>
<path d="M7.54619 3.90698C7.07736 3.90698 6.70898 3.52744 6.70898 3.06977V0.837209C6.70898 0.379535 7.08852 0 7.54619 0C8.00387 0 8.3834 0.379535 8.3834 0.837209V3.06977C8.3834 3.52744 8.00387 3.90698 7.54619 3.90698Z" fill="#292D32"/>
<path d="M11.9993 3.90698C11.5416 3.90698 11.1621 3.52744 11.1621 3.06977V0.837209C11.1621 0.379535 11.5416 0 11.9993 0C12.457 0 12.8365 0.379535 12.8365 0.837209V3.06977C12.8365 3.52744 12.457 3.90698 11.9993 3.90698Z" fill="#292D32"/>
<path d="M16.4642 3.90698C16.0065 3.90698 15.627 3.52744 15.627 3.06977V0.837209C15.627 0.379535 16.0065 0 16.4642 0C16.9218 0 17.3014 0.379535 17.3014 0.837209V3.06977C17.3014 3.52744 16.9218 3.90698 16.4642 3.90698Z" fill="#292D32"/>
<path d="M23.1635 8.37217H20.931C20.4733 8.37217 20.0938 7.99264 20.0938 7.53496C20.0938 7.07729 20.4733 6.69775 20.931 6.69775H23.1635C23.6212 6.69775 24.0007 7.07729 24.0007 7.53496C24.0007 7.99264 23.6324 8.37217 23.1635 8.37217Z" fill="#292D32"/>
<path d="M23.1635 12.8373H20.931C20.4733 12.8373 20.0938 12.4577 20.0938 12.0001C20.0938 11.5424 20.4733 11.1628 20.931 11.1628H23.1635C23.6212 11.1628 24.0007 11.5424 24.0007 12.0001C24.0007 12.4577 23.6324 12.8373 23.1635 12.8373Z" fill="#292D32"/>
<path d="M23.1635 17.3023H20.931C20.4733 17.3023 20.0938 16.9228 20.0938 16.4651C20.0938 16.0075 20.4733 15.6279 20.931 15.6279H23.1635C23.6212 15.6279 24.0007 16.0075 24.0007 16.4651C24.0007 16.9228 23.6324 17.3023 23.1635 17.3023Z" fill="#292D32"/>
<path d="M16.4642 24C16.0065 24 15.627 23.6205 15.627 23.1628V20.9302C15.627 20.4726 16.0065 20.093 16.4642 20.093C16.9218 20.093 17.3014 20.4726 17.3014 20.9302V23.1628C17.3014 23.6205 16.9218 24 16.4642 24Z" fill="#292D32"/>
<path d="M12.011 24C11.5534 24 11.1738 23.6205 11.1738 23.1628V20.9302C11.1738 20.4726 11.5534 20.093 12.011 20.093C12.4687 20.093 12.8482 20.4726 12.8482 20.9302V23.1628C12.8482 23.6205 12.4687 24 12.011 24Z" fill="#292D32"/>
<path d="M7.54619 24C7.08852 24 6.70898 23.6205 6.70898 23.1628V20.9302C6.70898 20.4726 7.08852 20.093 7.54619 20.093C8.00387 20.093 8.3834 20.4726 8.3834 20.9302V23.1628C8.3834 23.6205 8.00387 24 7.54619 24Z" fill="#292D32"/>
<path d="M3.06977 8.37217H0.837209C0.379535 8.37217 0 8.0038 0 7.53496C0 7.06613 0.379535 6.69775 0.837209 6.69775H3.06977C3.52744 6.69775 3.90698 7.07729 3.90698 7.53496C3.90698 7.99264 3.5386 8.37217 3.06977 8.37217Z" fill="#292D32"/>
<path d="M3.06977 12.8373H0.837209C0.379535 12.8373 0 12.4577 0 12.0001C0 11.5424 0.379535 11.1628 0.837209 11.1628H3.06977C3.52744 11.1628 3.90698 11.5424 3.90698 12.0001C3.90698 12.4577 3.5386 12.8373 3.06977 12.8373Z" fill="#292D32"/>
<path d="M3.06977 17.3023H0.837209C0.379535 17.3023 0 16.9228 0 16.4651C0 16.0075 0.379535 15.6279 0.837209 15.6279H3.06977C3.52744 15.6279 3.90698 16.0075 3.90698 16.4651C3.90698 16.9228 3.5386 17.3023 3.06977 17.3023Z" fill="#292D32"/>
</svg>
