<svg width="22" height="24" viewBox="0 0 22 24" fill="none" xmlns="http://www.w3.org/2000/svg">
<path d="M10.6474 13.9421C9.77676 13.9421 8.95072 13.6073 8.31444 12.9821C7.49956 12.1673 7.17585 10.9952 7.44375 9.84542C7.72282 8.67333 8.66049 7.73564 9.83257 7.45658C10.9712 7.17751 12.1433 7.50126 12.9693 8.3273C13.7953 9.15334 14.1079 10.3143 13.84 11.464C13.5609 12.6361 12.6233 13.5737 11.4512 13.8528C11.1833 13.9086 10.9154 13.9421 10.6474 13.9421ZM10.6474 9.03056C10.5135 9.03056 10.3684 9.05287 10.2344 9.08636C9.6763 9.22031 9.21863 9.67795 9.08467 10.2361C8.93956 10.8165 9.09582 11.3859 9.50884 11.7877C9.92187 12.2007 10.48 12.3459 11.0716 12.2119C11.6298 12.078 12.0874 11.6203 12.2214 11.0621C12.3665 10.4817 12.2102 9.91241 11.7972 9.51055C11.4847 9.19799 11.0828 9.03056 10.6474 9.03056Z" fill="#292D32"/>
<path d="M3.97393 18.664C3.773 18.664 3.5609 18.586 3.40462 18.4408C1.23905 16.4316 0 13.5962 0 10.6492C0 4.77762 4.77764 0 10.6492 0C16.5208 0 21.2985 4.77762 21.2985 10.6492C21.2985 13.6185 20.1041 16.3645 17.9385 18.4073C17.6036 18.7199 17.0678 18.7088 16.7552 18.3739C16.4427 18.039 16.4539 17.5032 16.7887 17.1906C18.6194 15.4716 19.6241 13.1608 19.6241 10.6604C19.6241 5.7153 15.5943 1.68558 10.6492 1.68558C5.70415 1.68558 1.67441 5.7153 1.67441 10.6604C1.67441 13.1832 2.69021 15.505 4.54322 17.2241C4.8781 17.5366 4.90044 18.0724 4.58788 18.4073C4.42044 18.5748 4.19718 18.664 3.97393 18.664Z" fill="#292D32"/>
<path d="M15.1128 15.6836C14.9119 15.6836 14.6998 15.6054 14.5435 15.4603C14.2086 15.1478 14.1863 14.6119 14.51 14.2771C15.4366 13.2947 15.95 11.9999 15.95 10.6604C15.95 7.73572 13.5724 5.36923 10.6589 5.36923C7.74542 5.36923 5.36777 7.74688 5.36777 10.6604C5.36777 12.011 5.88125 13.2947 6.80775 14.2771C7.12031 14.6119 7.10915 15.1478 6.77427 15.4603C6.43938 15.7729 5.90358 15.7617 5.59102 15.4269C4.37428 14.132 3.69336 12.4352 3.69336 10.6604C3.69336 6.82038 6.81891 3.69482 10.6589 3.69482C14.4989 3.69482 17.6244 6.82038 17.6244 10.6604C17.6244 12.4352 16.9547 14.132 15.7268 15.4269C15.5593 15.5943 15.3361 15.6836 15.1128 15.6836Z" fill="#292D32"/>
<path d="M12.255 24H9.05134C7.77879 24 6.65134 23.2856 6.10436 22.147C5.55739 21.0084 5.70251 19.68 6.49507 18.6865L8.1025 16.6884C8.72762 15.907 9.65411 15.4604 10.6588 15.4604C11.6634 15.4604 12.5899 15.907 13.215 16.6884L14.8225 18.6865C15.615 19.68 15.7713 21.0084 15.2132 22.147C14.6439 23.2856 13.5164 24 12.255 24ZM9.39738 17.7265L7.78995 19.7246C7.39925 20.2158 7.32112 20.8521 7.60018 21.4102C7.86809 21.9795 8.41505 22.3144 9.04017 22.3144H12.2439C12.869 22.3144 13.416 21.9795 13.6839 21.4102C13.9518 20.8409 13.8848 20.2158 13.4941 19.7246L11.8867 17.7265C11.2839 16.9675 10.0113 16.9675 9.39738 17.7265Z" fill="#292D32"/>
</svg>
