<svg width="33" height="32" viewBox="0 0 33 32" fill="none" xmlns="http://www.w3.org/2000/svg">
<path d="M25.2411 30.69C24.7795 30.69 24.3179 30.5709 23.901 30.3177L17.93 26.7737C17.3046 26.7588 16.6792 26.7142 16.0836 26.6248C15.6816 26.5653 15.3391 26.2972 15.1902 25.91C15.0413 25.5228 15.1157 25.1059 15.3838 24.7932C16.3665 23.6466 16.8728 22.2767 16.8728 20.8174C16.8728 17.2138 13.7012 14.2803 9.79989 14.2803C8.34064 14.2803 6.94094 14.6824 5.76461 15.4567C5.43702 15.6652 5.03499 15.6949 4.67762 15.5311C4.33514 15.3673 4.08202 15.0397 4.03735 14.6525C3.99268 14.2356 3.96289 13.8187 3.96289 13.3868C3.96289 6.00099 10.3657 0 18.2278 0C26.0899 0 32.4927 6.00099 32.4927 13.3868C32.4927 17.4372 30.6165 21.1598 27.3109 23.7062L27.8172 27.7565C27.9363 28.7691 27.4896 29.7221 26.6408 30.2731C26.2239 30.5411 25.7325 30.69 25.2411 30.69ZM18.2129 24.5252C18.4214 24.5103 18.6298 24.5699 18.8085 24.689L25.0476 28.3968C25.2114 28.5011 25.3454 28.4564 25.4347 28.3968C25.5092 28.3522 25.6283 28.233 25.5985 28.0246L25.0178 23.319C24.9731 22.9021 25.1518 22.5001 25.4794 22.2618C28.517 20.1324 30.2592 16.8862 30.2592 13.357C30.2592 7.20712 24.8689 2.20381 18.2278 2.20381C11.8399 2.20381 6.59847 6.84981 6.21132 12.687C7.32809 12.2552 8.53422 12.0169 9.78501 12.0169C14.9222 12.0169 19.0915 15.948 19.0915 20.7875C19.1063 22.0979 18.7936 23.3637 18.2129 24.5252Z" fill="#BDB7A9"/>
<path d="M5.45141 31.9998C5.06426 31.9998 4.69199 31.8956 4.34952 31.6723C3.67945 31.2404 3.3221 30.4959 3.41144 29.7067L3.70924 27.4134C1.69905 25.7754 0.507812 23.3482 0.507812 20.8019C0.507812 17.8982 2.02664 15.1881 4.57288 13.565C6.10659 12.5673 7.92319 12.0312 9.81426 12.0312C14.9514 12.0312 19.1207 15.9624 19.1207 20.8019C19.1207 22.7675 18.406 24.7033 17.0956 26.2371C15.413 28.2771 12.8966 29.4684 10.127 29.5577L6.49372 31.7169C6.16614 31.9105 5.80877 31.9998 5.45141 31.9998ZM9.79938 14.2649C8.34013 14.2649 6.94043 14.6669 5.76409 15.4412C3.85813 16.6623 2.72648 18.6576 2.72648 20.8019C2.72648 22.8717 3.73903 24.7629 5.52586 25.984C5.86834 26.2222 6.04701 26.6242 6.00234 27.0411L5.67475 29.5875L9.23354 27.473C9.41222 27.3688 9.6058 27.3092 9.79938 27.3092C11.9883 27.3092 14.058 26.3711 15.3684 24.7778C16.3511 23.6163 16.8723 22.2463 16.8723 20.787C16.8723 17.1983 13.7006 14.2649 9.79938 14.2649Z" fill="#BDB7A9"/>
</svg>
