<svg width="33" height="32" viewBox="0 0 33 32" fill="none" xmlns="http://www.w3.org/2000/svg">
<path d="M26.8526 23.7266L27.4765 28.7823C27.6365 30.1102 26.2126 31.0381 25.0767 30.3502L19.541 27.0544C19.157 26.8304 19.061 26.3504 19.269 25.9664C20.0689 24.4945 20.5009 22.8306 20.5009 21.1667C20.5009 15.3111 15.4772 10.5434 9.30153 10.5434C8.0376 10.5434 6.80566 10.7353 5.65373 11.1193C5.06176 11.3113 4.48579 10.7673 4.62978 10.1594C6.0857 4.33574 11.6854 0 18.373 0C26.1806 0 32.5003 5.90364 32.5003 13.1832C32.5003 17.5029 30.2764 21.3267 26.8526 23.7266Z" fill="#BDB7A9"/>
<path d="M18.0991 21.1669C18.0991 23.0707 17.3951 24.8306 16.2112 26.2226C14.6272 28.1424 12.1154 29.3744 9.29953 29.3744L5.12375 31.8542C4.41979 32.2862 3.52384 31.6942 3.61983 30.8783L4.01981 27.7265C1.87593 26.2386 0.5 23.8547 0.5 21.1669C0.5 18.351 2.00392 15.8712 4.3078 14.3993C5.73172 13.4713 7.44363 12.9434 9.29953 12.9434C14.1633 12.9434 18.0991 16.6231 18.0991 21.1669Z" fill="#BDB7A9"/>
</svg>
