<svg width="16" height="16" viewBox="0 0 16 16" fill="none" xmlns="http://www.w3.org/2000/svg">
<path d="M7.33023 15.9997H4.20465C1.29488 15.9997 0 14.7048 0 11.7951V8.66949C0 5.75973 1.29488 4.46484 4.20465 4.46484H7.33023C10.24 4.46484 11.5349 5.75973 11.5349 8.66949V11.7951C11.5349 14.7048 10.24 15.9997 7.33023 15.9997ZM4.20465 5.58112C1.89767 5.58112 1.11628 6.36252 1.11628 8.66949V11.7951C1.11628 14.1021 1.89767 14.8834 4.20465 14.8834H7.33023C9.63721 14.8834 10.4186 14.1021 10.4186 11.7951V8.66949C10.4186 6.36252 9.63721 5.58112 7.33023 5.58112H4.20465Z" fill="#7C7C7C"/>
<path d="M11.7951 11.5349H10.9765C10.6714 11.5349 10.4183 11.2819 10.4183 10.9767V8.66977C10.4183 6.36279 9.63694 5.5814 7.32996 5.5814H5.02298C4.71787 5.5814 4.46484 5.32837 4.46484 5.02326V4.20465C4.46484 1.29488 5.75973 0 8.66949 0H11.7951C14.7048 0 15.9997 1.29488 15.9997 4.20465V7.33023C15.9997 10.24 14.7048 11.5349 11.7951 11.5349ZM11.5346 10.4186H11.7951C14.1021 10.4186 14.8834 9.63721 14.8834 7.33023V4.20465C14.8834 1.89767 14.1021 1.11628 11.7951 1.11628H8.66949C6.36252 1.11628 5.58112 1.89767 5.58112 4.20465V4.46512H7.32996C10.2397 4.46512 11.5346 5.76 11.5346 8.66977V10.4186Z" fill="#7C7C7C"/>
</svg>
