<svg width="33" height="32" viewBox="0 0 33 32" fill="none" xmlns="http://www.w3.org/2000/svg">
<path d="M20.0714 29.0233H12.9274C6.39368 29.0233 3.47656 26.1061 3.47656 19.5721V12.4278C3.47656 5.8938 6.39368 2.97656 12.9274 2.97656H20.0714C26.6052 2.97656 29.5223 5.8938 29.5223 12.4278V19.5721C29.5223 26.1061 26.6052 29.0233 20.0714 29.0233ZM12.9274 5.20914C7.59923 5.20914 5.70905 7.0994 5.70905 12.4278V19.5721C5.70905 24.9005 7.59923 26.7908 12.9274 26.7908H20.0714C25.3996 26.7908 27.2898 24.9005 27.2898 19.5721V12.4278C27.2898 7.0994 25.3996 5.20914 20.0714 5.20914H12.9274Z" fill="#BDB7A9"/>
<path d="M18.7337 24.5579H14.2687C9.9526 24.5579 7.94336 22.5485 7.94336 18.2322V13.7671C7.94336 9.45073 9.9526 7.44141 14.2687 7.44141H18.7337C23.0499 7.44141 25.0591 9.45073 25.0591 13.7671V18.2322C25.0591 22.5485 23.0499 24.5579 18.7337 24.5579ZM14.2687 9.67399C11.173 9.67399 10.1758 10.6712 10.1758 13.7671V18.2322C10.1758 21.3281 11.173 22.3253 14.2687 22.3253H18.7337C21.8295 22.3253 22.8266 21.3281 22.8266 18.2322V13.7671C22.8266 10.6712 21.8295 9.67399 18.7337 9.67399H14.2687Z" fill="#BDB7A9"/>
<path d="M10.5616 5.20936C9.93646 5.20936 9.44531 4.7033 9.44531 4.09307V1.11629C9.44531 0.506052 9.95134 0 10.5616 0C11.1718 0 11.6778 0.506052 11.6778 1.11629V4.09307C11.6778 4.7033 11.1718 5.20936 10.5616 5.20936Z" fill="#BDB7A9"/>
<path d="M16.4991 5.20936C15.8888 5.20936 15.3828 4.7033 15.3828 4.09307V1.11629C15.3828 0.506052 15.8888 0 16.4991 0C17.1093 0 17.6153 0.506052 17.6153 1.11629V4.09307C17.6153 4.7033 17.1093 5.20936 16.4991 5.20936Z" fill="#BDB7A9"/>
<path d="M22.4522 5.20936C21.842 5.20936 21.3359 4.7033 21.3359 4.09307V1.11629C21.3359 0.506052 21.842 0 22.4522 0C23.0624 0 23.5684 0.506052 23.5684 1.11629V4.09307C23.5684 4.7033 23.0624 5.20936 22.4522 5.20936Z" fill="#BDB7A9"/>
<path d="M31.3839 11.1623H28.4073C27.797 11.1623 27.291 10.6562 27.291 10.046C27.291 9.43574 27.797 8.92969 28.4073 8.92969H31.3839C31.9941 8.92969 32.5002 9.43574 32.5002 10.046C32.5002 10.6562 32.009 11.1623 31.3839 11.1623Z" fill="#BDB7A9"/>
<path d="M31.3839 17.1164H28.4073C27.797 17.1164 27.291 16.6103 27.291 16.0001C27.291 15.3898 27.797 14.8838 28.4073 14.8838H31.3839C31.9941 14.8838 32.5002 15.3898 32.5002 16.0001C32.5002 16.6103 32.009 17.1164 31.3839 17.1164Z" fill="#BDB7A9"/>
<path d="M31.3839 23.0705H28.4073C27.797 23.0705 27.291 22.5644 27.291 21.9542C27.291 21.3439 27.797 20.8379 28.4073 20.8379H31.3839C31.9941 20.8379 32.5002 21.3439 32.5002 21.9542C32.5002 22.5644 32.009 23.0705 31.3839 23.0705Z" fill="#BDB7A9"/>
<path d="M22.4522 32.0004C21.842 32.0004 21.3359 31.4943 21.3359 30.8841V27.9073C21.3359 27.2971 21.842 26.791 22.4522 26.791C23.0624 26.791 23.5684 27.2971 23.5684 27.9073V30.8841C23.5684 31.4943 23.0624 32.0004 22.4522 32.0004Z" fill="#BDB7A9"/>
<path d="M16.5147 32.0004C15.9045 32.0004 15.3984 31.4943 15.3984 30.8841V27.9073C15.3984 27.2971 15.9045 26.791 16.5147 26.791C17.1249 26.791 17.6309 27.2971 17.6309 27.9073V30.8841C17.6309 31.4943 17.1249 32.0004 16.5147 32.0004Z" fill="#BDB7A9"/>
<path d="M10.5616 32.0004C9.95134 32.0004 9.44531 31.4943 9.44531 30.8841V27.9073C9.44531 27.2971 9.95134 26.791 10.5616 26.791C11.1718 26.791 11.6778 27.2971 11.6778 27.9073V30.8841C11.6778 31.4943 11.1718 32.0004 10.5616 32.0004Z" fill="#BDB7A9"/>
<path d="M4.5929 11.1623H1.61625C1.00603 11.1623 0.5 10.6711 0.5 10.046C0.5 9.42086 1.00603 8.92969 1.61625 8.92969H4.5929C5.20311 8.92969 5.70914 9.43574 5.70914 10.046C5.70914 10.6562 5.218 11.1623 4.5929 11.1623Z" fill="#BDB7A9"/>
<path d="M4.5929 17.1164H1.61625C1.00603 17.1164 0.5 16.6103 0.5 16.0001C0.5 15.3898 1.00603 14.8838 1.61625 14.8838H4.5929C5.20311 14.8838 5.70914 15.3898 5.70914 16.0001C5.70914 16.6103 5.218 17.1164 4.5929 17.1164Z" fill="#BDB7A9"/>
<path d="M4.5929 23.0705H1.61625C1.00603 23.0705 0.5 22.5644 0.5 21.9542C0.5 21.3439 1.00603 20.8379 1.61625 20.8379H4.5929C5.20311 20.8379 5.70914 21.3439 5.70914 21.9542C5.70914 22.5644 5.218 23.0705 4.5929 23.0705Z" fill="#BDB7A9"/>
</svg>
