<svg width="512" height="512" viewBox="0 0 512 512" fill="none" xmlns="http://www.w3.org/2000/svg">
<rect width="512" height="512" rx="16" fill="#BDB7A9"/>
<path d="M256.435 411.531C233.21 411.531 211.581 407.616 191.548 399.784C171.806 391.952 154.677 381.074 140.161 367.151C125.645 352.938 114.323 336.404 106.194 317.55C98.0645 298.696 94 278.101 94 255.766C94 233.431 98.0645 212.836 106.194 193.982C114.323 175.127 125.645 158.738 140.161 144.815C154.677 130.602 171.806 119.579 191.548 111.748C211.29 103.916 232.919 100 256.435 100C279.661 100 301 103.916 320.452 111.748C340.194 119.289 357.323 130.167 371.839 144.38C386.645 158.303 397.968 174.692 405.806 193.546C413.935 212.401 418 233.141 418 255.766C418 278.391 413.935 299.131 405.806 317.985C397.968 336.839 386.645 353.373 371.839 367.586C357.323 381.51 340.194 392.387 320.452 400.219C301 407.761 279.661 411.531 256.435 411.531ZM256.435 372.808C273.274 372.808 288.806 369.907 303.032 364.106C317.548 358.304 330.032 350.182 340.484 339.74C351.226 329.008 359.5 316.535 365.306 302.321C371.403 288.108 374.452 272.59 374.452 255.766C374.452 238.942 371.403 223.423 365.306 209.21C359.5 194.997 351.226 182.669 340.484 172.227C330.032 161.494 317.548 153.227 303.032 147.426C288.806 141.625 273.274 138.724 256.435 138.724C239.306 138.724 223.484 141.625 208.968 147.426C194.742 153.227 182.258 161.494 171.516 172.227C160.774 182.669 152.355 194.997 146.258 209.21C140.452 223.423 137.548 238.942 137.548 255.766C137.548 272.59 140.452 288.108 146.258 302.321C152.355 316.535 160.774 329.008 171.516 339.74C182.258 350.182 194.742 358.304 208.968 364.106C223.484 369.907 239.306 372.808 256.435 372.808Z" fill="#0C0C0C"/>
<rect x="181" y="204" width="140" height="24" rx="12" fill="#0C0C0C"/>
<rect x="181" y="244" width="140" height="24" rx="12" fill="#0C0C0C"/>
<rect x="181" y="284" width="140" height="24" rx="12" fill="#0C0C0C"/>
</svg>
