<svg width="33" height="32" viewBox="0 0 33 32" fill="none" xmlns="http://www.w3.org/2000/svg">
<path d="M24.9805 32H8.02286C5.26725 32 2.75388 29.8803 2.29966 27.1549L0.285941 15.103C-0.0320148 13.2255 0.876437 10.8182 2.37537 9.62203L12.8679 1.21885C14.8968 -0.416351 18.0915 -0.401196 20.1355 1.234L30.628 9.62203C32.1118 10.8182 33.0202 13.2255 32.7174 15.103L30.7037 27.1549C30.2495 29.8349 27.6907 32 24.9805 32ZM16.4866 2.29387C15.6841 2.29387 14.8816 2.53608 14.2911 3.00545L3.7986 11.4086C2.93558 12.1051 2.3451 13.6494 2.52679 14.7395L4.54051 26.7916C4.81304 28.3814 6.4028 29.7289 8.02286 29.7289H24.9805C26.6006 29.7289 28.1903 28.3813 28.4629 26.7764L30.4766 14.7245C30.6583 13.6343 30.0526 12.0748 29.2048 11.3935L18.7122 3.00545C18.1066 2.53608 17.3042 2.29387 16.4866 2.29387Z" fill="#BDB7A9"/>
<path d="M16.5028 22.445C13.7926 22.445 11.582 20.2344 11.582 17.5243C11.582 14.8141 13.7926 12.6035 16.5028 12.6035C19.213 12.6035 21.4235 14.8141 21.4235 17.5243C21.4235 20.2344 19.213 22.445 16.5028 22.445ZM16.5028 14.8746C15.0493 14.8746 13.8531 16.0707 13.8531 17.5243C13.8531 18.9778 15.0493 20.1739 16.5028 20.1739C17.9563 20.1739 19.1524 18.9778 19.1524 17.5243C19.1524 16.0707 17.9563 14.8746 16.5028 14.8746Z" fill="#BDB7A9"/>
</svg>
