<svg width="33" height="32" viewBox="0 0 33 32" fill="none" xmlns="http://www.w3.org/2000/svg">
<path d="M31.1196 10.0865L19.6868 1.0537C17.9216 -0.348504 15.0675 -0.348504 13.3188 1.03739L1.88599 10.0865C0.599181 11.0974 -0.225695 13.2333 0.0547631 14.8312L2.24893 27.8097C2.64487 30.125 4.88853 32 7.26417 32H25.7414C28.1005 32 30.3607 30.1087 30.7566 27.8097L32.9508 14.8312C33.2148 13.2333 32.3899 11.0974 31.1196 10.0865ZM16.5028 21.7117C14.2261 21.7117 12.3784 19.8856 12.3784 17.6356C12.3784 15.3855 14.2261 13.5594 16.5028 13.5594C18.7794 13.5594 20.6272 15.3855 20.6272 17.6356C20.6272 19.8856 18.7794 21.7117 16.5028 21.7117Z" fill="#BDB7A9"/>
</svg>
