<svg width="24" height="23" viewBox="0 0 24 23" fill="none" xmlns="http://www.w3.org/2000/svg">
<path d="M12.0323 23C10.3118 23 8.70968 22.7109 7.22581 22.1327C5.76344 21.5545 4.49462 20.7514 3.41935 19.7235C2.34409 18.6741 1.50538 17.4534 0.903226 16.0615C0.301075 14.6695 0 13.149 0 11.5C0 9.85102 0.301075 8.33054 0.903226 6.93855C1.50538 5.54656 2.34409 4.33659 3.41935 3.30866C4.49462 2.25931 5.76344 1.44553 7.22581 0.867318C8.68817 0.289106 10.2903 0 12.0323 0C13.7527 0 15.3333 0.289106 16.7742 0.867318C18.2366 1.42412 19.5054 2.22719 20.5806 3.27654C21.6774 4.30447 22.5161 5.51443 23.0968 6.90643C23.6989 8.29842 24 9.82961 24 11.5C24 13.1704 23.6989 14.7016 23.0968 16.0936C22.5161 17.4856 21.6774 18.7062 20.5806 19.7556C19.5054 20.7835 18.2366 21.5866 16.7742 22.1648C15.3333 22.7216 13.7527 23 12.0323 23ZM12.0323 20.1411C13.2796 20.1411 14.4301 19.9269 15.4839 19.4986C16.5591 19.0703 17.4839 18.4707 18.2581 17.6997C19.0538 16.9074 19.6667 15.9865 20.0968 14.9372C20.5484 13.8878 20.7742 12.7421 20.7742 11.5C20.7742 10.2579 20.5484 9.1122 20.0968 8.06285C19.6667 7.0135 19.0538 6.10335 18.2581 5.3324C17.4839 4.54004 16.5591 3.9297 15.4839 3.5014C14.4301 3.07309 13.2796 2.85894 12.0323 2.85894C10.7634 2.85894 9.5914 3.07309 8.51613 3.5014C7.46236 3.9297 6.53763 4.54004 5.74193 5.3324C4.94624 6.10335 4.32258 7.0135 3.87097 8.06285C3.44086 9.1122 3.22581 10.2579 3.22581 11.5C3.22581 12.7421 3.44086 13.8878 3.87097 14.9372C4.32258 15.9865 4.94624 16.9074 5.74193 17.6997C6.53763 18.4707 7.46236 19.0703 8.51613 19.4986C9.5914 19.9269 10.7634 20.1411 12.0323 20.1411Z" fill="#BDB7A9"/>
</svg>
