<svg width="24" height="24" viewBox="0 0 24 24" fill="none" xmlns="http://www.w3.org/2000/svg">
<path d="M12 24C5.38047 24 0 18.6195 0 12C0 5.38047 5.38047 0 12 0C18.6195 0 24 5.38047 24 12C24 18.6195 18.6195 24 12 24ZM12 1.67442C6.30698 1.67442 1.67442 6.30698 1.67442 12C1.67442 17.693 6.30698 22.3256 12 22.3256C17.693 22.3256 22.3256 17.693 22.3256 12C22.3256 6.30698 17.693 1.67442 12 1.67442Z" fill="#BDB7A9"/>
<path d="M11.9993 13.9531C11.5416 13.9531 11.1621 13.5735 11.1621 13.1159V7.53447C11.1621 7.0768 11.5416 6.69727 11.9993 6.69727C12.457 6.69727 12.8365 7.0768 12.8365 7.53447V13.1159C12.8365 13.5735 12.457 13.9531 11.9993 13.9531Z" fill="#BDB7A9"/>
<path d="M11.9991 17.5815C11.854 17.5815 11.7089 17.548 11.5749 17.4922C11.441 17.4364 11.3182 17.3582 11.2065 17.2577C11.1061 17.1461 11.0279 17.0345 10.9721 16.8894C10.9163 16.7554 10.8828 16.6103 10.8828 16.4652C10.8828 16.3201 10.9163 16.175 10.9721 16.041C11.0279 15.9071 11.1061 15.7843 11.2065 15.6726C11.3182 15.5722 11.441 15.494 11.5749 15.4382C11.8428 15.3266 12.1554 15.3266 12.4233 15.4382C12.5572 15.494 12.68 15.5722 12.7916 15.6726C12.8921 15.7843 12.9703 15.9071 13.0261 16.041C13.0819 16.175 13.1154 16.3201 13.1154 16.4652C13.1154 16.6103 13.0819 16.7554 13.0261 16.8894C12.9703 17.0345 12.8921 17.1461 12.7916 17.2577C12.68 17.3582 12.5572 17.4364 12.4233 17.4922C12.2893 17.548 12.1442 17.5815 11.9991 17.5815Z" fill="#BDB7A9"/>
</svg>
