<svg width="12" height="13" viewBox="0 0 12 13" fill="none" xmlns="http://www.w3.org/2000/svg">
<path d="M7.8797 12.5H7.80375C5.20978 12.5 3.95954 11.4776 3.74338 9.18744C3.72001 8.94791 3.89528 8.73174 4.14065 8.70837C4.37434 8.685 4.59635 8.86611 4.61972 9.10565C4.78914 10.9401 5.6538 11.6237 7.80959 11.6237H7.88554C10.2633 11.6237 11.1046 10.7824 11.1046 8.40458V4.59542C11.1046 2.21762 10.2633 1.37634 7.88554 1.37634H7.80959C5.64211 1.37634 4.77746 2.07157 4.61972 3.94109C4.5905 4.18062 4.38603 4.36173 4.14065 4.33836C3.89528 4.32084 3.72001 4.10467 3.73753 3.86514C3.93617 1.53992 5.19226 0.5 7.80375 0.5H7.8797C10.7482 0.5 11.9751 1.72687 11.9751 4.59542V8.40458C11.9751 11.2731 10.7482 12.5 7.8797 12.5Z" fill="#FCFCFC"/>
<path d="M7.739 6.93786H1.09051C0.850981 6.93786 0.652344 6.73923 0.652344 6.49969C0.652344 6.26016 0.850981 6.06152 1.09051 6.06152H7.739C7.97854 6.06152 8.17717 6.26016 8.17717 6.49969C8.17717 6.73923 7.97854 6.93786 7.739 6.93786Z" fill="#FCFCFC"/>
<path d="M2.39387 8.89466C2.28286 8.89466 2.17186 8.85376 2.08423 8.76613L0.127069 6.80897C-0.0423564 6.63955 -0.0423564 6.35912 0.127069 6.18969L2.08423 4.23254C2.25365 4.06311 2.53408 4.06311 2.70351 4.23254C2.87293 4.40196 2.87293 4.68239 2.70351 4.85182L1.05599 6.49933L2.70351 8.14685C2.87293 8.31628 2.87293 8.59671 2.70351 8.76613C2.62171 8.85376 2.50487 8.89466 2.39387 8.89466Z" fill="#FCFCFC"/>
</svg>
