<svg width="25" height="24" viewBox="0 0 25 24" fill="none" xmlns="http://www.w3.org/2000/svg">
<path d="M13.343 16.7446H11.2444C9.75973 16.7446 8.54297 15.4944 8.54297 13.9539C8.54297 13.4963 8.9225 13.1167 9.38018 13.1167C9.83785 13.1167 10.2174 13.4963 10.2174 13.9539C10.2174 14.5679 10.6751 15.0702 11.2444 15.0702H13.343C13.7783 15.0702 14.1244 14.6795 14.1244 14.1995C14.1244 13.5967 13.9569 13.5074 13.5774 13.3735L10.2174 12.2014C9.50297 11.9446 8.54297 11.4312 8.54297 9.79023C8.54297 8.39488 9.6481 7.24512 10.9988 7.24512H13.0974C14.582 7.24512 15.7988 8.49535 15.7988 10.0358C15.7988 10.4935 15.4192 10.873 14.9616 10.873C14.5039 10.873 14.1244 10.4935 14.1244 10.0358C14.1244 9.42186 13.6667 8.91954 13.0974 8.91954H10.9988C10.5634 8.91954 10.2174 9.31023 10.2174 9.79023C10.2174 10.393 10.3848 10.4823 10.7644 10.6163L14.1244 11.7884C14.8388 12.0451 15.7988 12.5586 15.7988 14.1995C15.7988 15.606 14.6937 16.7446 13.343 16.7446Z" fill="#BDB7A9"/>
<path d="M12.1692 17.8606C11.7116 17.8606 11.332 17.481 11.332 17.0234V6.97686C11.332 6.51918 11.7116 6.13965 12.1692 6.13965C12.6269 6.13965 13.0064 6.51918 13.0064 6.97686V17.0234C13.0064 17.481 12.6269 17.8606 12.1692 17.8606Z" fill="#BDB7A9"/>
<path d="M12.1699 24C5.55039 24 0.169922 18.6195 0.169922 12C0.169922 5.38047 5.55039 0 12.1699 0C12.6276 0 13.0071 0.379535 13.0071 0.837209C13.0071 1.29488 12.6276 1.67442 12.1699 1.67442C6.4769 1.67442 1.84434 6.30698 1.84434 12C1.84434 17.693 6.4769 22.3256 12.1699 22.3256C17.8629 22.3256 22.4955 17.693 22.4955 12C22.4955 11.5423 22.875 11.1628 23.3327 11.1628C23.7904 11.1628 24.1699 11.5423 24.1699 12C24.1699 18.6195 18.7895 24 12.1699 24Z" fill="#BDB7A9"/>
<path d="M23.3336 6.13954C22.8759 6.13954 22.4964 5.76 22.4964 5.30233V1.67442H18.8685C18.4108 1.67442 18.0312 1.29488 18.0312 0.837209C18.0312 0.379535 18.4108 0 18.8685 0H23.3336C23.7913 0 24.1708 0.379535 24.1708 0.837209V5.30233C24.1708 5.76 23.7913 6.13954 23.3336 6.13954Z" fill="#BDB7A9"/>
<path d="M17.7504 7.25595C17.5383 7.25595 17.3262 7.17781 17.1588 7.01037C16.8351 6.68665 16.8351 6.15084 17.1588 5.82712L22.7402 0.24572C23.0639 -0.0780005 23.5997 -0.0780005 23.9235 0.24572C24.2472 0.569441 24.2472 1.10525 23.9235 1.42897L18.3421 7.01037C18.1746 7.17781 17.9625 7.25595 17.7504 7.25595Z" fill="#BDB7A9"/>
</svg>
