<svg width="26" height="24" viewBox="0 0 26 24" fill="none" xmlns="http://www.w3.org/2000/svg">
<path d="M12.7966 24C12.4395 24 12.0824 23.9167 11.7848 23.75C9.55879 22.5358 5.64242 21.2502 3.19023 20.9288L2.84502 20.8812C1.28562 20.6907 0 19.2266 0 17.6433V3.2635C0 2.3231 0.369019 1.46602 1.04754 0.847019C1.72606 0.228019 2.60694 -0.0695772 3.53544 0.0137497C6.15429 0.216115 10.1064 1.52554 12.3443 2.93019L12.63 3.09685C12.7133 3.14446 12.8919 3.14446 12.9633 3.10875L13.1538 2.98971C15.3917 1.58506 19.3437 0.251827 21.9745 0.0256537C21.9983 0.0256537 22.0935 0.0256537 22.1173 0.0256537C22.9863 -0.0576732 23.8791 0.251827 24.5457 0.870827C25.2243 1.48983 25.5933 2.3469 25.5933 3.28731V17.6553C25.5933 19.2504 24.3077 20.7026 22.7363 20.8931L22.3435 20.9407C19.8913 21.2621 15.9631 22.5596 13.7847 23.7619C13.499 23.9286 13.1538 24 12.7966 24ZM3.24975 1.78742C2.86883 1.78742 2.52362 1.91837 2.24983 2.16835C1.95223 2.44213 1.78558 2.83496 1.78558 3.2635V17.6433C1.78558 18.3457 2.39267 19.0242 3.07119 19.1194L3.42831 19.167C6.10667 19.5242 10.2135 20.8693 12.5943 22.1668C12.7014 22.2144 12.8562 22.2263 12.9157 22.2025C15.2964 20.8812 19.4271 19.5242 22.1173 19.167L22.5221 19.1194C23.2006 19.0361 23.8077 18.3457 23.8077 17.6433V3.2754C23.8077 2.83496 23.641 2.45404 23.3434 2.16835C23.0339 1.89456 22.6411 1.76362 22.2007 1.78742C22.1769 1.78742 22.0816 1.78742 22.0578 1.78742C19.7842 1.98979 16.1178 3.21588 14.118 4.46579L13.9275 4.59673C13.2728 5.00146 12.3443 5.00146 11.7134 4.60863L11.4277 4.44198C9.39213 3.19208 5.72575 1.97788 3.3926 1.78742C3.34498 1.78742 3.29737 1.78742 3.24975 1.78742Z" fill="#292D32"/>
<path d="M12.7971 23C12.309 23 11.9043 22.5953 11.9043 22.1072V4.25143C11.9043 3.76337 12.309 3.35864 12.7971 3.35864C13.2851 3.35864 13.6899 3.76337 13.6899 4.25143V22.1072C13.6899 22.6072 13.2851 23 12.7971 23Z" fill="#292D32"/>
<path d="M7.73717 8.71551H5.0588C4.57075 8.71551 4.16602 8.31078 4.16602 7.82272C4.16602 7.33466 4.57075 6.92993 5.0588 6.92993H7.73717C8.22523 6.92993 8.62996 7.33466 8.62996 7.82272C8.62996 8.31078 8.22523 8.71551 7.73717 8.71551Z" fill="#292D32"/>
<path d="M8.62996 12.2866H5.0588C4.57075 12.2866 4.16602 11.8818 4.16602 11.3938C4.16602 10.9057 4.57075 10.501 5.0588 10.501H8.62996C9.11802 10.501 9.52275 10.9057 9.52275 11.3938C9.52275 11.8818 9.11802 12.2866 8.62996 12.2866Z" fill="#292D32"/>
</svg>
