<svg width="28" height="32" viewBox="0 0 28 32" fill="none" xmlns="http://www.w3.org/2000/svg">
<path d="M26.8665 19.2638L25.054 16.2483C24.653 15.5907 24.3002 14.3235 24.3002 13.5536V10.5542C24.3002 4.73174 19.5684 0 13.7619 0C7.93941 0.0160398 3.20762 4.73174 3.20762 10.5542V13.5376C3.20762 14.3075 2.85475 15.5746 2.46979 16.2323L0.657274 19.2477C-0.0324439 20.4187 -0.192843 21.75 0.240235 22.9048C0.673314 24.0757 1.65175 25.006 2.93495 25.4231C4.66726 26.0005 6.41561 26.4175 8.19605 26.7223C8.37249 26.7544 8.54893 26.7704 8.72537 26.8025C8.94992 26.8346 9.19052 26.8667 9.43112 26.8987C9.84816 26.9629 10.2652 27.011 10.6983 27.0431C11.7088 27.1393 12.7354 27.1874 13.7619 27.1874C14.7724 27.1874 15.7829 27.1393 16.7774 27.0431C17.1463 27.011 17.5153 26.9789 17.8681 26.9308C18.1569 26.8987 18.4456 26.8667 18.7343 26.8185C18.9107 26.8025 19.0872 26.7704 19.2636 26.7383C21.0601 26.4496 22.8405 26.0005 24.5728 25.4231C25.8079 25.006 26.7543 24.0757 27.2034 22.8888C27.6525 21.6858 27.5242 20.3705 26.8665 19.2638ZM14.9328 12.7516C14.9328 13.4253 14.3875 13.9707 13.7138 13.9707C13.0401 13.9707 12.4948 13.4253 12.4948 12.7516V7.7793C12.4948 7.10563 13.0401 6.56027 13.7138 6.56027C14.3875 6.56027 14.9328 7.10563 14.9328 7.7793V12.7516Z" fill="#CFCFCF"/>
<path d="M18.2696 28.808C17.5959 30.6686 15.8155 32 13.7303 32C12.4631 32 11.212 31.4867 10.3298 30.5724C9.81655 30.0912 9.43159 29.4496 9.20703 28.792C9.41555 28.8241 9.62407 28.8401 9.84863 28.8722C10.2175 28.9203 10.6025 28.9684 10.9875 29.0005C11.9017 29.0807 12.8321 29.1288 13.7624 29.1288C14.6767 29.1288 15.5909 29.0807 16.4892 29.0005C16.826 28.9684 17.1628 28.9524 17.4836 28.9043C17.7403 28.8722 17.9969 28.8401 18.2696 28.808Z" fill="#CFCFCF"/>
</svg>
