<svg width="856" height="243" viewBox="0 0 856 243" fill="none" xmlns="http://www.w3.org/2000/svg">
<path d="M96.5438 175.59C83.4529 175.59 71.262 173.383 59.9711 168.969C48.8438 164.555 39.1893 158.424 31.0074 150.576C22.8256 142.565 16.4438 133.246 11.862 122.619C7.28017 111.992 4.98926 100.384 4.98926 87.7952C4.98926 75.2064 7.28017 63.5984 11.862 52.9714C16.4438 42.3444 22.8256 33.1071 31.0074 25.2595C39.1893 17.2484 48.8438 11.0357 59.9711 6.62143C71.0983 2.20714 83.2893 0 96.5438 0C109.635 0 121.662 2.20714 132.626 6.62143C143.753 10.8722 153.407 17.0032 161.589 25.0143C169.935 32.8619 176.317 42.0992 180.735 52.7262C185.317 63.3532 187.607 75.0429 187.607 87.7952C187.607 100.548 185.317 112.237 180.735 122.864C176.317 133.491 169.935 142.81 161.589 150.821C153.407 158.669 143.753 164.8 132.626 169.214C121.662 173.465 109.635 175.59 96.5438 175.59ZM96.5438 153.764C106.035 153.764 114.789 152.129 122.807 148.86C130.989 145.59 138.026 141.012 143.917 135.126C149.971 129.077 154.635 122.047 157.907 114.036C161.344 106.025 163.062 97.2778 163.062 87.7952C163.062 78.3127 161.344 69.5659 157.907 61.5548C154.635 53.5436 149.971 46.5952 143.917 40.7095C138.026 34.6603 130.989 30.0008 122.807 26.731C114.789 23.4611 106.035 21.8262 96.5438 21.8262C86.8893 21.8262 77.9711 23.4611 69.7893 26.731C61.7711 30.0008 54.7347 34.6603 48.6802 40.7095C42.6256 46.5952 37.8802 53.5436 34.4438 61.5548C31.1711 69.5659 29.5347 78.3127 29.5347 87.7952C29.5347 97.2778 31.1711 106.025 34.4438 114.036C37.8802 122.047 42.6256 129.077 48.6802 135.126C54.7347 141.012 61.7711 145.59 69.7893 148.86C77.9711 152.129 86.8893 153.764 96.5438 153.764ZM347.852 173.629V1.96191H414.861C429.915 1.96191 442.761 4.33254 453.397 9.07381C464.033 13.8151 472.215 20.6817 477.943 29.6738C483.67 38.6659 486.533 49.3746 486.533 61.8C486.533 74.2254 483.67 84.9341 477.943 93.9262C472.215 102.755 464.033 109.621 453.397 114.526C442.761 119.267 429.915 121.638 414.861 121.638H361.352L372.397 110.112V173.629H347.852ZM372.397 112.564L361.352 100.302H414.124C429.833 100.302 441.697 96.9508 449.715 90.2476C457.897 83.5444 461.988 74.0619 461.988 61.8C461.988 49.5381 457.897 40.0556 449.715 33.3524C441.697 26.6492 429.833 23.2976 414.124 23.2976H361.352L372.397 11.0357V112.564ZM724.546 175.59C711.455 175.59 699.346 173.465 688.219 169.214C677.255 164.8 667.682 158.669 659.5 150.821C651.482 142.81 645.182 133.491 640.6 122.864C636.018 112.237 633.728 100.548 633.728 87.7952C633.728 75.0429 636.018 63.3532 640.6 52.7262C645.182 42.0992 651.564 32.8619 659.746 25.0143C667.928 17.0032 677.5 10.8722 688.464 6.62143C699.591 2.20714 711.7 0 724.791 0C738.046 0 750.237 2.28889 761.364 6.86667C772.655 11.281 782.228 17.9024 790.082 26.731L774.128 42.181C767.582 35.3143 760.219 30.246 752.037 26.9762C743.855 23.5429 735.1 21.8262 725.773 21.8262C716.118 21.8262 707.118 23.4611 698.773 26.731C690.591 30.0008 683.473 34.5786 677.419 40.4643C671.364 46.35 666.618 53.3802 663.182 61.5548C659.909 69.5659 658.273 78.3127 658.273 87.7952C658.273 97.2778 659.909 106.106 663.182 114.281C666.618 122.292 671.364 129.24 677.419 135.126C683.473 141.012 690.591 145.59 698.773 148.86C707.118 152.129 716.118 153.764 725.773 153.764C735.1 153.764 743.855 152.129 752.037 148.86C760.219 145.426 767.582 140.194 774.128 133.164L790.082 148.614C782.228 157.443 772.655 164.146 761.364 168.724C750.237 173.302 737.964 175.59 724.546 175.59Z" fill="#0C0C0C"/>
<path d="M18.2812 234.637C16.4381 235.67 14.3768 236.187 12.097 236.187C9.81709 236.187 7.75036 235.67 5.89667 234.637C4.05363 233.606 2.61008 232.185 1.56605 230.375C0.522017 228.565 0 226.543 0 224.308C0 222.073 0.522017 220.05 1.56605 218.241C2.61008 216.431 4.05363 215.01 5.89667 213.978C7.75036 212.945 9.81709 212.428 12.097 212.428C14.3768 212.428 16.4381 212.945 18.2812 213.978C20.1242 215.01 21.5626 216.431 22.5959 218.241C23.6399 220.05 24.1619 222.073 24.1619 224.308C24.1619 226.543 23.6399 228.565 22.5959 230.375C21.5626 232.185 20.1242 233.606 18.2812 234.637ZM12.097 232.563C14.4621 232.563 16.4275 231.779 17.9937 230.215C19.5597 228.64 20.3427 226.67 20.3427 224.308C20.3427 221.945 19.5597 219.982 17.9937 218.417C16.4275 216.841 14.4621 216.053 12.097 216.053C10.5415 216.053 9.12998 216.416 7.86222 217.139C6.60512 217.852 5.61968 218.842 4.9059 220.109C4.19212 221.365 3.83523 222.764 3.83523 224.308C3.83523 225.851 4.19212 227.256 4.9059 228.523C5.61968 229.778 6.60512 230.769 7.86222 231.493C9.12998 232.206 10.5415 232.563 12.097 232.563ZM47.5191 217.667C49.2556 217.667 50.8217 218.066 52.2172 218.864C53.6129 219.661 54.6994 220.768 55.4772 222.184C56.2656 223.6 56.6598 225.181 56.6598 226.927C56.6598 229.577 55.7915 231.786 54.055 233.552C52.3292 235.319 50.1505 236.202 47.5191 236.202C45.2499 236.202 43.2897 235.489 41.6385 234.063V242.078H38.011V218.097H40.4559L41.143 220.268C41.9526 219.439 42.9009 218.8 43.9875 218.352C45.0848 217.896 46.262 217.667 47.5191 217.667ZM43.0767 231.062C44.1846 232.168 45.5695 232.723 47.2314 232.723C48.8934 232.723 50.2677 232.173 51.3544 231.078C52.4409 229.971 52.9844 228.586 52.9844 226.927C52.9844 225.266 52.4409 223.888 51.3544 222.791C50.2677 221.684 48.8934 221.131 47.2314 221.131C45.5695 221.131 44.1846 221.684 43.0767 222.791C41.9793 223.897 41.4306 225.276 41.4306 226.927C41.4306 228.577 41.9793 229.955 43.0767 231.062ZM78.2112 232.466H80.2246V235.756H77.5241C75.5852 235.756 74.0563 235.196 72.9377 234.08C71.8191 232.952 71.2598 231.413 71.2598 229.464V221.211H68.0957V220.508L74.2481 213.978H74.8714V218.097H80.1288V221.211H74.9033V229.178C74.9033 230.231 75.1856 231.045 75.7503 231.621C76.3254 232.185 77.1458 232.466 78.2112 232.466ZM93.6742 215.366V211.614H97.4295V215.366H93.6742ZM93.738 235.756V218.097H97.3655V235.756H93.738ZM132.26 217.698C134.114 217.698 135.616 218.337 136.767 219.614C137.928 220.891 138.509 222.531 138.509 224.532V235.756H134.881V225.426C134.881 223.999 134.583 222.897 133.986 222.12C133.39 221.344 132.543 220.955 131.445 220.955C130.263 220.955 129.272 221.439 128.473 222.408C127.685 223.376 127.29 224.605 127.29 226.096V235.756H123.743V225.426C123.743 223.999 123.445 222.897 122.848 222.12C122.262 221.344 121.415 220.955 120.307 220.955C119.125 220.955 118.134 221.439 117.335 222.408C116.536 223.376 116.136 224.605 116.136 226.096V235.756H112.509V218.097H115.082L115.705 220.381C116.376 219.539 117.191 218.885 118.15 218.417C119.119 217.938 120.137 217.698 121.202 217.698C122.385 217.698 123.434 217.974 124.35 218.528C125.277 219.071 125.996 219.826 126.507 220.796C127.157 219.838 127.988 219.081 129 218.528C130.013 217.974 131.099 217.698 132.26 217.698ZM168.226 218.08L171.023 218.097V235.739H168.098L167.747 233.601C166.937 234.42 165.983 235.059 164.886 235.517C163.788 235.963 162.607 236.187 161.339 236.187C159.612 236.187 158.046 235.788 156.64 234.989C155.234 234.179 154.131 233.068 153.332 231.652C152.533 230.226 152.134 228.645 152.134 226.911C152.134 225.164 152.533 223.59 153.332 222.184C154.131 220.768 155.234 219.661 156.64 218.864C158.046 218.066 159.612 217.667 161.339 217.667C162.617 217.667 163.81 217.896 164.917 218.352C166.025 218.81 166.984 219.46 167.794 220.301L168.226 218.08ZM157.472 231.062C158.568 232.157 159.948 232.706 161.61 232.706C163.273 232.706 164.646 232.157 165.732 231.062C166.83 229.955 167.378 228.57 167.378 226.911C167.378 225.25 166.83 223.871 165.732 222.776C164.646 221.679 163.273 221.131 161.61 221.131C159.948 221.131 158.568 221.684 157.472 222.791C156.374 223.888 155.825 225.261 155.825 226.911C155.825 228.57 156.374 229.955 157.472 231.062ZM186.198 235.756V211.774H189.824V235.756H186.198Z" fill="#0C0C0C"/>
<path d="M360.478 212.86C362.703 212.86 364.562 213.579 366.054 215.015C367.545 216.452 368.291 218.257 368.291 220.428C368.291 222.589 367.545 224.388 366.054 225.825C364.562 227.262 362.703 227.98 360.478 227.98H355.778V235.756H352.008V212.86H360.478ZM360.301 224.419C361.515 224.419 362.512 224.041 363.289 223.286C364.078 222.531 364.472 221.577 364.472 220.428C364.472 219.279 364.078 218.326 363.289 217.57C362.512 216.815 361.515 216.437 360.301 216.437H355.778V224.419H360.301ZM394.589 234.989C393.151 235.788 391.542 236.187 389.762 236.187C387.983 236.187 386.375 235.788 384.936 234.989C383.498 234.179 382.369 233.073 381.549 231.668C380.729 230.252 380.319 228.671 380.319 226.927C380.319 225.169 380.729 223.59 381.549 222.184C382.369 220.768 383.498 219.661 384.936 218.864C386.375 218.066 387.983 217.667 389.762 217.667C391.542 217.667 393.151 218.066 394.589 218.864C396.028 219.661 397.157 220.768 397.977 222.184C398.796 223.6 399.207 225.181 399.207 226.927C399.207 228.671 398.796 230.252 397.977 231.668C397.157 233.073 396.028 234.179 394.589 234.989ZM385.624 231.093C386.71 232.178 388.09 232.723 389.762 232.723C391.436 232.723 392.809 232.178 393.886 231.093C394.972 230.007 395.515 228.619 395.515 226.927C395.515 225.233 394.972 223.845 393.886 222.76C392.809 221.674 391.436 221.131 389.762 221.131C388.09 221.131 386.71 221.674 385.624 222.76C384.549 223.845 384.01 225.233 384.01 226.927C384.01 228.619 384.549 230.007 385.624 231.093ZM413.008 215.366V211.614H416.764V215.366H413.008ZM413.072 235.756V218.097H416.7V235.756H413.072ZM441.191 217.698C443.237 217.698 444.867 218.384 446.081 219.758C447.295 221.131 447.904 222.918 447.904 225.122V235.756H444.276V225.856C444.276 224.249 443.929 223.031 443.237 222.2C442.554 221.37 441.548 220.955 440.216 220.955C438.832 220.955 437.691 221.461 436.796 222.472C435.912 223.472 435.471 224.749 435.471 226.304V235.756H431.843V218.097H434.368L435.086 220.556C435.768 219.652 436.637 218.949 437.691 218.448C438.747 217.948 439.913 217.698 441.191 217.698ZM470.541 232.466H472.554V235.756H469.854C467.915 235.756 466.386 235.196 465.267 234.08C464.149 232.952 463.59 231.413 463.59 229.464V221.211H460.425V220.508L466.578 213.978H467.201V218.097H472.459V221.211H467.232V229.178C467.232 230.231 467.515 231.045 468.08 231.621C468.656 232.185 469.476 232.466 470.541 232.466Z" fill="#0C0C0C"/>
<path d="M613.807 236.154C612.135 236.154 610.569 235.857 609.109 235.26C607.65 234.665 606.403 233.851 605.37 232.818C604.336 231.774 603.521 230.519 602.925 229.049C602.328 227.581 602.03 226.005 602.03 224.324C602.03 222.642 602.328 221.067 602.925 219.598C603.521 218.118 604.336 216.857 605.37 215.814C606.403 214.771 607.65 213.951 609.109 213.355C610.569 212.759 612.135 212.461 613.807 212.461C616.514 212.461 618.867 213.238 620.87 214.793C622.873 216.346 624.174 218.411 624.769 220.987H620.966C620.423 219.465 619.518 218.273 618.25 217.41C616.982 216.537 615.501 216.102 613.807 216.102C611.506 216.102 609.605 216.879 608.103 218.432C606.601 219.975 605.85 221.939 605.85 224.324C605.85 226.708 606.601 228.671 608.103 230.215C609.605 231.758 611.506 232.53 613.807 232.53C615.555 232.53 617.067 232.067 618.345 231.142C619.624 230.215 620.524 228.938 621.046 227.31H624.866C624.268 230.002 622.964 232.152 620.95 233.759C618.947 235.357 616.566 236.154 613.807 236.154ZM651.466 234.989C650.028 235.788 648.42 236.187 646.641 236.187C644.862 236.187 643.254 235.788 641.815 234.989C640.377 234.179 639.248 233.073 638.426 231.668C637.606 230.252 637.196 228.671 637.196 226.927C637.196 225.169 637.606 223.59 638.426 222.184C639.248 220.768 640.377 219.661 641.815 218.864C643.254 218.066 644.862 217.667 646.641 217.667C648.42 217.667 650.028 218.066 651.466 218.864C652.905 219.661 654.034 220.768 654.854 222.184C655.675 223.6 656.084 225.181 656.084 226.927C656.084 228.671 655.675 230.252 654.854 231.668C654.034 233.073 652.905 234.179 651.466 234.989ZM642.502 231.093C643.589 232.178 644.968 232.723 646.641 232.723C648.313 232.723 649.688 232.178 650.763 231.093C651.849 230.007 652.394 228.619 652.394 226.927C652.394 225.233 651.849 223.845 650.763 222.76C649.688 221.674 648.313 221.131 646.641 221.131C644.968 221.131 643.589 221.674 642.502 222.76C641.426 223.845 640.887 225.233 640.887 226.927C640.887 228.619 641.426 230.007 642.502 231.093ZM669.949 235.756V211.774H673.577V235.756H669.949ZM688.722 235.756V211.774H692.348V235.756H688.722ZM724.286 226.974C724.286 227.314 724.26 227.708 724.206 228.156H709.857C710.081 229.582 710.677 230.71 711.647 231.541C712.616 232.371 713.825 232.786 715.273 232.786C716.317 232.786 717.25 232.558 718.07 232.1C718.901 231.642 719.551 231.008 720.02 230.2H723.856C723.152 232.062 722.04 233.525 720.516 234.59C718.993 235.654 717.245 236.187 715.273 236.187C712.696 236.187 710.539 235.303 708.801 233.537C707.065 231.758 706.198 229.556 706.198 226.927C706.198 225.191 706.591 223.616 707.379 222.2C708.168 220.785 709.255 219.678 710.639 218.88C712.025 218.071 713.57 217.667 715.273 217.667C717.032 217.667 718.603 218.087 719.988 218.927C721.374 219.758 722.432 220.881 723.169 222.297C723.913 223.701 724.286 225.261 724.286 226.974ZM715.273 220.94C713.922 220.94 712.771 221.322 711.822 222.089C710.875 222.854 710.251 223.897 709.953 225.218H720.644C720.313 223.876 719.668 222.828 718.71 222.073C717.762 221.318 716.617 220.94 715.273 220.94ZM746.078 236.187C744.351 236.187 742.78 235.782 741.363 234.972C739.946 234.165 738.834 233.051 738.024 231.635C737.225 230.221 736.826 228.645 736.826 226.911C736.826 225.176 737.225 223.605 738.024 222.2C738.834 220.785 739.946 219.678 741.363 218.88C742.78 218.071 744.358 217.667 746.094 217.667C748.267 217.667 750.147 218.278 751.735 219.503C753.322 220.726 754.361 222.354 754.85 224.388H751.255C750.787 223.376 750.093 222.583 749.179 222.009C748.262 221.424 747.228 221.131 746.078 221.131C744.49 221.131 743.163 221.684 742.098 222.791C741.044 223.897 740.517 225.271 740.517 226.911C740.517 228.549 741.049 229.929 742.114 231.045C743.18 232.164 744.502 232.723 746.078 232.723C747.24 232.723 748.267 232.424 749.162 231.828C750.067 231.232 750.759 230.396 751.239 229.32H754.899C754.408 231.385 753.36 233.046 751.751 234.302C750.142 235.559 748.251 236.187 746.078 236.187ZM776.306 232.466H778.321V235.756H775.619C773.68 235.756 772.152 235.196 771.032 234.08C769.915 232.952 769.355 231.413 769.355 229.464V221.211H766.19V220.508L772.343 213.978H772.966V218.097H778.224V221.211H772.999V229.178C772.999 230.231 773.281 231.045 773.845 231.621C774.421 232.185 775.241 232.466 776.306 232.466ZM791.77 215.366V211.614H795.525V215.366H791.77ZM791.834 235.756V218.097H795.462V235.756H791.834ZM822.7 218.097H826.441L819.169 235.756H815.846L808.382 218.097H812.218L817.508 231.189L822.7 218.097ZM855.662 226.974C855.662 227.314 855.635 227.708 855.583 228.156H841.232C841.456 229.582 842.052 230.71 843.022 231.541C843.991 232.371 845.2 232.786 846.65 232.786C847.694 232.786 848.625 232.558 849.447 232.1C850.276 231.642 850.928 231.008 851.396 230.2H855.231C854.528 232.062 853.415 233.525 851.892 234.59C850.368 235.654 848.62 236.187 846.65 236.187C844.071 236.187 841.915 235.303 840.178 233.537C838.441 231.758 837.573 229.556 837.573 226.927C837.573 225.191 837.968 223.616 838.755 222.2C839.544 220.785 840.63 219.678 842.016 218.88C843.4 218.071 844.945 217.667 846.65 217.667C848.408 217.667 849.979 218.087 851.363 218.927C852.749 219.758 853.809 220.881 854.544 222.297C855.29 223.701 855.662 225.261 855.662 226.974ZM846.65 220.94C845.297 220.94 844.147 221.322 843.198 222.089C842.25 222.854 841.627 223.897 841.329 225.218H852.019C851.689 223.876 851.044 222.828 850.085 222.073C849.138 221.318 847.992 220.94 846.65 220.94Z" fill="#0C0C0C"/>
</svg>
