<svg width="528" height="189" viewBox="0 0 528 189" fill="none" xmlns="http://www.w3.org/2000/svg">
<path d="M63.1502 146.2C55.1502 146.2 47.7002 144.85 40.8002 142.15C34.0002 139.45 28.1002 135.7 23.1002 130.9C18.1002 126 14.2002 120.3 11.4002 113.8C8.6002 107.3 7.2002 100.2 7.2002 92.4998C7.2002 84.7998 8.6002 77.6998 11.4002 71.1998C14.2002 64.6998 18.1002 59.0498 23.1002 54.2498C28.1002 49.3498 34.0002 45.5498 40.8002 42.8498C47.6002 40.1498 55.0502 38.7998 63.1502 38.7998C71.1502 38.7998 78.5002 40.1498 85.2002 42.8498C92.0002 45.4498 97.9002 49.1998 102.9 54.0998C108 58.8998 111.9 64.5498 114.6 71.0498C117.4 77.5498 118.8 84.6998 118.8 92.4998C118.8 100.3 117.4 107.45 114.6 113.95C111.9 120.45 108 126.15 102.9 131.05C97.9002 135.85 92.0002 139.6 85.2002 142.3C78.5002 144.9 71.1502 146.2 63.1502 146.2ZM63.1502 132.85C68.9502 132.85 74.3002 131.85 79.2002 129.85C84.2002 127.85 88.5002 125.05 92.1002 121.45C95.8002 117.75 98.6502 113.45 100.65 108.55C102.75 103.65 103.8 98.2998 103.8 92.4998C103.8 86.6998 102.75 81.3498 100.65 76.4498C98.6502 71.5498 95.8002 67.2998 92.1002 63.6998C88.5002 59.9998 84.2002 57.1498 79.2002 55.1498C74.3002 53.1498 68.9502 52.1498 63.1502 52.1498C57.2502 52.1498 51.8002 53.1498 46.8002 55.1498C41.9002 57.1498 37.6002 59.9998 33.9002 63.6998C30.2002 67.2998 27.3002 71.5498 25.2002 76.4498C23.2002 81.3498 22.2002 86.6998 22.2002 92.4998C22.2002 98.2998 23.2002 103.65 25.2002 108.55C27.3002 113.45 30.2002 117.75 33.9002 121.45C37.6002 125.05 41.9002 127.85 46.8002 129.85C51.8002 131.85 57.2502 132.85 63.1502 132.85ZM216.727 145V39.9998H257.677C266.877 39.9998 274.727 41.4498 281.227 44.3498C287.727 47.2498 292.727 51.4498 296.227 56.9498C299.727 62.4498 301.477 68.9998 301.477 76.5998C301.477 84.1998 299.727 90.7498 296.227 96.2498C292.727 101.65 287.727 105.85 281.227 108.85C274.727 111.75 266.877 113.2 257.677 113.2H224.977L231.727 106.15V145H216.727ZM231.727 107.65L224.977 100.15H257.227C266.827 100.15 274.077 98.0998 278.977 93.9998C283.977 89.8998 286.477 84.0998 286.477 76.5998C286.477 69.0998 283.977 63.2998 278.977 59.1998C274.077 55.0998 266.827 53.0498 257.227 53.0498H224.977L231.727 45.5498V107.65ZM446.929 146.2C438.929 146.2 431.529 144.9 424.729 142.3C418.029 139.6 412.179 135.85 407.179 131.05C402.279 126.15 398.429 120.45 395.629 113.95C392.829 107.45 391.429 100.3 391.429 92.4998C391.429 84.6998 392.829 77.5498 395.629 71.0498C398.429 64.5498 402.329 58.8998 407.329 54.0998C412.329 49.1998 418.179 45.4498 424.879 42.8498C431.679 40.1498 439.079 38.7998 447.079 38.7998C455.179 38.7998 462.629 40.1998 469.429 42.9998C476.329 45.6998 482.179 49.7498 486.979 55.1498L477.229 64.5998C473.229 60.3998 468.729 57.2998 463.729 55.2998C458.729 53.1998 453.379 52.1498 447.679 52.1498C441.779 52.1498 436.279 53.1498 431.179 55.1498C426.179 57.1498 421.829 59.9498 418.129 63.5498C414.429 67.1498 411.529 71.4498 409.429 76.4498C407.429 81.3498 406.429 86.6998 406.429 92.4998C406.429 98.2998 407.429 103.7 409.429 108.7C411.529 113.6 414.429 117.85 418.129 121.45C421.829 125.05 426.179 127.85 431.179 129.85C436.279 131.85 441.779 132.85 447.679 132.85C453.379 132.85 458.729 131.85 463.729 129.85C468.729 127.75 473.229 124.55 477.229 120.25L486.979 129.7C482.179 135.1 476.329 139.2 469.429 142C462.629 144.8 455.129 146.2 446.929 146.2Z" fill="#BDB7A9"/>
<path d="M15.3232 182.316C14.1969 182.948 12.9372 183.264 11.544 183.264C10.1507 183.264 8.8877 182.948 7.75489 182.316C6.62859 181.685 5.74642 180.816 5.1084 179.709C4.47038 178.602 4.15137 177.365 4.15137 175.998C4.15137 174.631 4.47038 173.394 5.1084 172.287C5.74642 171.18 6.62859 170.311 7.75489 169.68C8.8877 169.048 10.1507 168.732 11.544 168.732C12.9372 168.732 14.1969 169.048 15.3232 169.68C16.4495 170.311 17.3285 171.18 17.96 172.287C18.598 173.394 18.917 174.631 18.917 175.998C18.917 177.365 18.598 178.602 17.96 179.709C17.3285 180.816 16.4495 181.685 15.3232 182.316ZM11.544 181.047C12.9893 181.047 14.1904 180.568 15.1475 179.611C16.1045 178.648 16.583 177.443 16.583 175.998C16.583 174.553 16.1045 173.352 15.1475 172.395C14.1904 171.431 12.9893 170.949 11.544 170.949C10.5934 170.949 9.7308 171.171 8.95606 171.613C8.18783 172.049 7.58562 172.655 7.14942 173.43C6.71322 174.198 6.49512 175.054 6.49512 175.998C6.49512 176.942 6.71322 177.801 7.14942 178.576C7.58562 179.344 8.18783 179.95 8.95606 180.393C9.7308 180.829 10.5934 181.047 11.544 181.047ZM33.1908 171.936C34.252 171.936 35.2091 172.18 36.0619 172.668C36.9148 173.156 37.5788 173.833 38.0541 174.699C38.5359 175.565 38.7768 176.532 38.7768 177.6C38.7768 179.221 38.2462 180.572 37.185 181.652C36.1303 182.733 34.7989 183.273 33.1908 183.273C31.8041 183.273 30.6062 182.837 29.5971 181.965V186.867H27.3803V172.199H28.8744L29.2943 173.527C29.7891 173.02 30.3686 172.629 31.0326 172.355C31.7032 172.076 32.4226 171.936 33.1908 171.936ZM30.476 180.129C31.1531 180.806 31.9994 181.145 33.015 181.145C34.0307 181.145 34.8705 180.809 35.5346 180.139C36.1986 179.462 36.5307 178.615 36.5307 177.6C36.5307 176.584 36.1986 175.741 35.5346 175.07C34.8705 174.393 34.0307 174.055 33.015 174.055C31.9994 174.055 31.1531 174.393 30.476 175.07C29.8054 175.747 29.4701 176.59 29.4701 177.6C29.4701 178.609 29.8054 179.452 30.476 180.129ZM51.9471 180.988H53.1775V183H51.5272C50.3423 183 49.408 182.658 48.7244 181.975C48.0408 181.285 47.699 180.344 47.699 179.152V174.104H45.7654V173.674L49.5252 169.68H49.9061V172.199H53.119V174.104H49.9256V178.977C49.9256 179.621 50.0981 180.119 50.4432 180.471C50.7947 180.816 51.296 180.988 51.9471 180.988ZM61.3967 170.529V168.234H63.6916V170.529H61.3967ZM61.4357 183V172.199H63.6525V183H61.4357ZM84.9772 171.955C86.11 171.955 87.0279 172.346 87.7311 173.127C88.4407 173.908 88.7955 174.911 88.7955 176.135V183H86.5787V176.682C86.5787 175.809 86.3964 175.135 86.0318 174.66C85.6673 174.185 85.1497 173.947 84.4791 173.947C83.7565 173.947 83.151 174.243 82.6627 174.836C82.1809 175.428 81.94 176.18 81.94 177.092V183H79.7721V176.682C79.7721 175.809 79.5898 175.135 79.2252 174.66C78.8671 174.185 78.3496 173.947 77.6725 173.947C76.9498 173.947 76.3443 174.243 75.8561 174.836C75.3678 175.428 75.1236 176.18 75.1236 177.092V183H72.9068V172.199H74.4791L74.86 173.596C75.2701 173.081 75.7682 172.681 76.3541 172.395C76.9466 172.102 77.5683 171.955 78.2193 171.955C78.942 171.955 79.5833 172.124 80.1432 172.463C80.7096 172.795 81.149 173.257 81.4615 173.85C81.8587 173.264 82.3665 172.801 82.985 172.463C83.6035 172.124 84.2675 171.955 84.9772 171.955ZM106.956 172.189L108.665 172.199V182.99H106.878L106.663 181.682C106.168 182.183 105.585 182.574 104.915 182.854C104.244 183.127 103.522 183.264 102.747 183.264C101.692 183.264 100.735 183.02 99.876 182.531C99.0166 182.036 98.3428 181.356 97.8545 180.49C97.3662 179.618 97.1221 178.651 97.1221 177.59C97.1221 176.522 97.3662 175.559 97.8545 174.699C98.3428 173.833 99.0166 173.156 99.876 172.668C100.735 172.18 101.692 171.936 102.747 171.936C103.528 171.936 104.257 172.076 104.934 172.355C105.611 172.635 106.197 173.033 106.692 173.547L106.956 172.189ZM100.384 180.129C101.054 180.799 101.897 181.135 102.913 181.135C103.929 181.135 104.768 180.799 105.432 180.129C106.103 179.452 106.438 178.605 106.438 177.59C106.438 176.574 106.103 175.731 105.432 175.061C104.768 174.39 103.929 174.055 102.913 174.055C101.897 174.055 101.054 174.393 100.384 175.07C99.7132 175.741 99.3779 176.581 99.3779 177.59C99.3779 178.605 99.7132 179.452 100.384 180.129ZM117.939 183V168.332H120.155V183H117.939Z" fill="#BDB7A9"/>
<path d="M224.443 168.996C225.803 168.996 226.939 169.436 227.851 170.314C228.762 171.193 229.218 172.297 229.218 173.625C229.218 174.947 228.762 176.047 227.851 176.926C226.939 177.805 225.803 178.244 224.443 178.244H221.571V183H219.267V168.996H224.443ZM224.335 176.066C225.077 176.066 225.686 175.835 226.161 175.373C226.643 174.911 226.884 174.328 226.884 173.625C226.884 172.922 226.643 172.339 226.161 171.877C225.686 171.415 225.077 171.184 224.335 171.184H221.571V176.066H224.335ZM245.289 182.531C244.41 183.02 243.427 183.264 242.339 183.264C241.252 183.264 240.269 183.02 239.39 182.531C238.511 182.036 237.821 181.359 237.32 180.5C236.819 179.634 236.568 178.667 236.568 177.6C236.568 176.525 236.819 175.559 237.32 174.699C237.821 173.833 238.511 173.156 239.39 172.668C240.269 172.18 241.252 171.936 242.339 171.936C243.427 171.936 244.41 172.18 245.289 172.668C246.168 173.156 246.858 173.833 247.359 174.699C247.86 175.565 248.111 176.532 248.111 177.6C248.111 178.667 247.86 179.634 247.359 180.5C246.858 181.359 246.168 182.036 245.289 182.531ZM239.81 180.148C240.474 180.812 241.317 181.145 242.339 181.145C243.362 181.145 244.201 180.812 244.859 180.148C245.523 179.484 245.855 178.635 245.855 177.6C245.855 176.564 245.523 175.715 244.859 175.051C244.201 174.387 243.362 174.055 242.339 174.055C241.317 174.055 240.474 174.387 239.81 175.051C239.153 175.715 238.824 176.564 238.824 177.6C238.824 178.635 239.153 179.484 239.81 180.148ZM256.545 170.529V168.234H258.84V170.529H256.545ZM256.584 183V172.199H258.801V183H256.584ZM273.768 171.955C275.018 171.955 276.014 172.375 276.756 173.215C277.498 174.055 277.87 175.148 277.87 176.496V183H275.653V176.945C275.653 175.962 275.441 175.217 275.018 174.709C274.601 174.201 273.986 173.947 273.172 173.947C272.326 173.947 271.629 174.257 271.082 174.875C270.542 175.487 270.272 176.268 270.272 177.219V183H268.055V172.199H269.598L270.037 173.703C270.454 173.15 270.985 172.72 271.629 172.414C272.274 172.108 272.987 171.955 273.768 171.955ZM291.704 180.988H292.934V183H291.284C290.099 183 289.165 182.658 288.481 181.975C287.798 181.285 287.456 180.344 287.456 179.152V174.104H285.522V173.674L289.282 169.68H289.663V172.199H292.876V174.104H289.682V178.977C289.682 179.621 289.855 180.119 290.2 180.471C290.552 180.816 291.053 180.988 291.704 180.988Z" fill="#BDB7A9"/>
<path d="M379.257 183.244C378.235 183.244 377.278 183.062 376.386 182.697C375.494 182.333 374.732 181.835 374.101 181.203C373.469 180.565 372.971 179.797 372.607 178.898C372.242 178 372.06 177.036 372.06 176.008C372.06 174.979 372.242 174.016 372.607 173.117C372.971 172.212 373.469 171.441 374.101 170.803C374.732 170.165 375.494 169.663 376.386 169.299C377.278 168.934 378.235 168.752 379.257 168.752C380.911 168.752 382.349 169.227 383.573 170.178C384.797 171.128 385.592 172.391 385.956 173.967H383.632C383.3 173.036 382.747 172.307 381.972 171.779C381.197 171.245 380.292 170.979 379.257 170.979C377.851 170.979 376.689 171.454 375.771 172.404C374.853 173.348 374.394 174.549 374.394 176.008C374.394 177.466 374.853 178.667 375.771 179.611C376.689 180.555 377.851 181.027 379.257 181.027C380.325 181.027 381.249 180.744 382.03 180.178C382.812 179.611 383.362 178.83 383.681 177.834H386.015C385.65 179.481 384.853 180.796 383.622 181.779C382.398 182.756 380.943 183.244 379.257 183.244ZM402.271 182.531C401.392 183.02 400.409 183.264 399.322 183.264C398.235 183.264 397.252 183.02 396.373 182.531C395.494 182.036 394.804 181.359 394.302 180.5C393.801 179.634 393.55 178.667 393.55 177.6C393.55 176.525 393.801 175.559 394.302 174.699C394.804 173.833 395.494 173.156 396.373 172.668C397.252 172.18 398.235 171.936 399.322 171.936C400.409 171.936 401.392 172.18 402.271 172.668C403.15 173.156 403.84 173.833 404.341 174.699C404.843 175.565 405.093 176.532 405.093 177.6C405.093 178.667 404.843 179.634 404.341 180.5C403.84 181.359 403.15 182.036 402.271 182.531ZM396.793 180.148C397.457 180.812 398.3 181.145 399.322 181.145C400.344 181.145 401.184 180.812 401.841 180.148C402.505 179.484 402.838 178.635 402.838 177.6C402.838 176.564 402.505 175.715 401.841 175.051C401.184 174.387 400.344 174.055 399.322 174.055C398.3 174.055 397.457 174.387 396.793 175.051C396.135 175.715 395.806 176.564 395.806 177.6C395.806 178.635 396.135 179.484 396.793 180.148ZM413.566 183V168.332H415.783V183H413.566ZM425.038 183V168.332H427.254V183H425.038ZM446.772 177.629C446.772 177.837 446.756 178.078 446.723 178.352H437.954C438.091 179.224 438.455 179.914 439.048 180.422C439.64 180.93 440.379 181.184 441.264 181.184C441.902 181.184 442.472 181.044 442.973 180.764C443.481 180.484 443.878 180.096 444.165 179.602H446.509C446.079 180.741 445.399 181.636 444.468 182.287C443.537 182.938 442.469 183.264 441.264 183.264C439.689 183.264 438.371 182.723 437.309 181.643C436.248 180.555 435.718 179.208 435.718 177.6C435.718 176.538 435.958 175.575 436.44 174.709C436.922 173.843 437.586 173.166 438.432 172.678C439.279 172.183 440.223 171.936 441.264 171.936C442.339 171.936 443.299 172.193 444.145 172.707C444.992 173.215 445.639 173.902 446.089 174.768C446.544 175.627 446.772 176.581 446.772 177.629ZM441.264 173.938C440.438 173.938 439.735 174.172 439.155 174.641C438.576 175.109 438.195 175.747 438.013 176.555H444.546C444.344 175.734 443.95 175.093 443.364 174.631C442.785 174.169 442.085 173.938 441.264 173.938ZM460.089 183.264C459.034 183.264 458.074 183.016 457.208 182.521C456.342 182.027 455.662 181.346 455.167 180.48C454.679 179.615 454.435 178.651 454.435 177.59C454.435 176.529 454.679 175.568 455.167 174.709C455.662 173.843 456.342 173.166 457.208 172.678C458.074 172.183 459.038 171.936 460.099 171.936C461.427 171.936 462.576 172.31 463.546 173.059C464.516 173.807 465.151 174.803 465.45 176.047H463.253C462.967 175.428 462.543 174.943 461.984 174.592C461.424 174.234 460.792 174.055 460.089 174.055C459.119 174.055 458.308 174.393 457.657 175.07C457.013 175.747 456.691 176.587 456.691 177.59C456.691 178.592 457.016 179.436 457.667 180.119C458.318 180.803 459.126 181.145 460.089 181.145C460.799 181.145 461.427 180.962 461.974 180.598C462.527 180.233 462.95 179.722 463.243 179.064H465.48C465.18 180.327 464.539 181.343 463.556 182.111C462.573 182.88 461.417 183.264 460.089 183.264ZM478.562 180.988H479.793V183H478.142C476.957 183 476.023 182.658 475.339 181.975C474.656 181.285 474.314 180.344 474.314 179.152V174.104H472.38V173.674L476.14 169.68H476.521V172.199H479.734V174.104H476.541V178.977C476.541 179.621 476.713 180.119 477.058 180.471C477.41 180.816 477.911 180.988 478.562 180.988ZM488.012 170.529V168.234H490.307V170.529H488.012ZM488.051 183V172.199H490.268V183H488.051ZM506.914 172.199H509.2L504.756 183H502.725L498.164 172.199H500.508L503.741 180.207L506.914 172.199ZM527.057 177.629C527.057 177.837 527.041 178.078 527.009 178.352H518.239C518.376 179.224 518.74 179.914 519.333 180.422C519.925 180.93 520.664 181.184 521.55 181.184C522.188 181.184 522.757 181.044 523.259 180.764C523.766 180.484 524.164 180.096 524.45 179.602H526.794C526.364 180.741 525.684 181.636 524.753 182.287C523.822 182.938 522.754 183.264 521.55 183.264C519.974 183.264 518.656 182.723 517.595 181.643C516.533 180.555 516.003 179.208 516.003 177.6C516.003 176.538 516.244 175.575 516.725 174.709C517.207 173.843 517.871 173.166 518.718 172.678C519.564 172.183 520.508 171.936 521.55 171.936C522.624 171.936 523.584 172.193 524.43 172.707C525.277 173.215 525.925 173.902 526.374 174.768C526.83 175.627 527.057 176.581 527.057 177.629ZM521.55 173.938C520.723 173.938 520.02 174.172 519.44 174.641C518.861 175.109 518.48 175.747 518.298 176.555H524.831C524.629 175.734 524.235 175.093 523.649 174.631C523.07 174.169 522.37 173.938 521.55 173.938Z" fill="#BDB7A9"/>
</svg>
