<svg width="22" height="24" viewBox="0 0 22 24" fill="none" xmlns="http://www.w3.org/2000/svg">
<path d="M18.3333 0H3.66667C1.63778 0 0 1.5962 0 3.56445V16.6581C0 18.6263 1.63778 20.2345 3.66667 20.2345H4.59556C5.56111 20.2345 6.50222 20.6066 7.18667 21.2787L9.27667 23.3069C10.23 24.231 11.77 24.231 12.7233 23.3069L14.8133 21.2787C15.4978 20.6066 16.4389 20.2345 17.4044 20.2345H18.3333C20.3622 20.2345 22 18.6263 22 16.6581V3.56445C22 1.5962 20.3622 0 18.3333 0ZM11 4.26053C12.32 4.26053 13.3833 5.31666 13.3833 6.60083C13.3833 7.87298 12.3567 8.89311 11.0856 8.94112C11.0367 8.94112 10.9633 8.94112 10.9022 8.94112C9.61889 8.89311 8.60444 7.87298 8.60444 6.60083C8.61667 5.31666 9.68 4.26053 11 4.26053ZM14.3611 15.2299C12.5156 16.4421 9.48444 16.4421 7.63889 15.2299C6.01333 14.1738 6.01333 12.4216 7.63889 11.3534C9.49667 10.1413 12.5278 10.1413 14.3611 11.3534C15.9867 12.4216 15.9867 14.1618 14.3611 15.2299Z" fill="#BDB7A9"/>
</svg>
