<svg width="324" height="312" viewBox="0 0 324 312" fill="none" xmlns="http://www.w3.org/2000/svg">
<path d="M162.435 311.531C139.21 311.531 117.581 307.616 97.5484 299.784C77.8064 291.952 60.6774 281.074 46.1613 267.151C31.6452 252.938 20.3226 236.404 12.1935 217.55C4.06452 198.696 0 178.101 0 155.766C0 133.431 4.06452 112.836 12.1935 93.9816C20.3226 75.1272 31.6452 58.7385 46.1613 44.8153C60.6774 30.602 77.8064 19.5795 97.5484 11.7477C117.29 3.9159 138.919 0 162.435 0C185.661 0 207 3.9159 226.452 11.7477C246.194 19.2894 263.323 30.1669 277.839 44.3802C292.645 58.3034 303.968 74.6921 311.806 93.5465C319.935 112.401 324 133.141 324 155.766C324 178.391 319.935 199.131 311.806 217.985C303.968 236.839 292.645 253.373 277.839 267.586C263.323 281.51 246.194 292.387 226.452 300.219C207 307.761 185.661 311.531 162.435 311.531ZM162.435 272.808C179.274 272.808 194.806 269.907 209.032 264.106C223.548 258.304 236.032 250.182 246.484 239.74C257.226 229.008 265.5 216.535 271.306 202.321C277.403 188.108 280.452 172.59 280.452 155.766C280.452 138.942 277.403 123.423 271.306 109.21C265.5 94.9968 257.226 82.669 246.484 72.2266C236.032 61.4941 223.548 53.2272 209.032 47.4259C194.806 41.6246 179.274 38.7239 162.435 38.7239C145.306 38.7239 129.484 41.6246 114.968 47.4259C100.742 53.2272 88.2581 61.4941 77.5161 72.2266C66.7742 82.669 58.3548 94.9968 52.2581 109.21C46.4516 123.423 43.5484 138.942 43.5484 155.766C43.5484 172.59 46.4516 188.108 52.2581 202.321C58.3548 216.535 66.7742 229.008 77.5161 239.74C88.2581 250.182 100.742 258.304 114.968 264.106C129.484 269.907 145.306 272.808 162.435 272.808Z" fill="#0C0C0C"/>
<path d="M232 156L127 216.622L127 95.3782L232 156Z" fill="#0C0C0C"/>
</svg>
