<svg width="31" height="32" viewBox="0 0 31 32" fill="none" xmlns="http://www.w3.org/2000/svg">
<path d="M21.4534 32H9.54642C4.11386 32 0.988281 28.8744 0.988281 23.4419V8.55814C0.988281 3.12558 4.11386 0 9.54642 0H21.4534C26.886 0 30.0115 3.12558 30.0115 8.55814V23.4419C30.0115 28.8744 26.886 32 21.4534 32ZM9.54642 2.23256C5.28968 2.23256 3.22084 4.3014 3.22084 8.55814V23.4419C3.22084 27.6986 5.28968 29.7674 9.54642 29.7674H21.4534C25.7101 29.7674 27.779 27.6986 27.779 23.4419V8.55814C27.779 4.3014 25.7101 2.23256 21.4534 2.23256H9.54642Z" fill="#BDB7A9"/>
<path d="M21.8272 15.6276H9.17601C7.12205 15.6276 5.45508 13.9607 5.45508 11.9067V8.18577C5.45508 6.13182 7.12205 4.46484 9.17601 4.46484H21.8272C23.8811 4.46484 25.5481 6.13182 25.5481 8.18577V11.9067C25.5481 13.9607 23.8811 15.6276 21.8272 15.6276ZM9.17601 6.6974C8.3574 6.6974 7.68764 7.36717 7.68764 8.18577V11.9067C7.68764 12.7253 8.3574 13.3951 9.17601 13.3951H21.8272C22.6458 13.3951 23.3155 12.7253 23.3155 11.9067V8.18577C23.3155 7.36717 22.6458 6.6974 21.8272 6.6974H9.17601Z" fill="#BDB7A9"/>
<path d="M9.54615 25.4217C9.26336 25.4217 8.98057 25.3174 8.75731 25.0942C8.32569 24.6625 8.32569 23.9481 8.75731 23.5165L12.1806 20.0933C12.6122 19.6616 13.3266 19.6616 13.7582 20.0933C14.1899 20.5249 14.1899 21.2393 13.7582 21.6709L10.335 25.0942C10.1117 25.3174 9.82894 25.4217 9.54615 25.4217Z" fill="#BDB7A9"/>
<path d="M13.0143 25.4655C12.7315 25.4655 12.4487 25.3614 12.2255 25.1381L8.80224 21.7149C8.37061 21.2832 8.37061 20.5688 8.80224 20.1372C9.23386 19.7056 9.94828 19.7056 10.3799 20.1372L13.8031 23.5604C14.2348 23.9921 14.2348 24.7065 13.8031 25.1381C13.5799 25.3614 13.2971 25.4655 13.0143 25.4655Z" fill="#BDB7A9"/>
<path d="M22.2123 22.4445C21.3936 22.4445 20.709 21.7748 20.709 20.9561C20.709 20.1375 21.3639 19.4678 22.1825 19.4678H22.2123C23.0309 19.4678 23.7006 20.1375 23.7006 20.9561C23.7006 21.7748 23.0309 22.4445 22.2123 22.4445Z" fill="#BDB7A9"/>
<path d="M19.2052 25.6596C18.3866 25.6596 17.7168 25.0047 17.7168 24.1861V24.1563C17.7168 23.3377 18.3866 22.668 19.2052 22.668C20.0238 22.668 20.6935 23.3377 20.6935 24.1563C20.6935 24.9749 20.0238 25.6596 19.2052 25.6596Z" fill="#BDB7A9"/>
</svg>
