<svg width="324" height="312" viewBox="0 0 324 312" fill="none" xmlns="http://www.w3.org/2000/svg">
<path d="M162.435 311.531C139.21 311.531 117.581 307.616 97.5484 299.784C77.8064 291.952 60.6774 281.074 46.1613 267.151C31.6452 252.938 20.3226 236.404 12.1935 217.55C4.06452 198.696 0 178.101 0 155.766C0 133.431 4.06452 112.836 12.1935 93.9816C20.3226 75.1272 31.6452 58.7385 46.1613 44.8153C60.6774 30.602 77.8064 19.5795 97.5484 11.7477C117.29 3.91589 138.919 0 162.435 0C185.661 0 207 3.91589 226.452 11.7477C246.194 19.2894 263.323 30.1669 277.839 44.3802C292.645 58.3034 303.968 74.6921 311.806 93.5465C319.935 112.401 324 133.141 324 155.766C324 178.391 319.935 199.131 311.806 217.985C303.968 236.839 292.645 253.373 277.839 267.586C263.323 281.51 246.194 292.387 226.452 300.219C207 307.761 185.661 311.531 162.435 311.531ZM162.435 272.808C179.274 272.808 194.806 269.907 209.032 264.106C223.548 258.304 236.032 250.182 246.484 239.74C257.226 229.008 265.5 216.535 271.306 202.321C277.403 188.108 280.452 172.59 280.452 155.766C280.452 138.942 277.403 123.423 271.306 109.21C265.5 94.9968 257.226 82.669 246.484 72.2266C236.032 61.4941 223.548 53.2272 209.032 47.4259C194.806 41.6245 179.274 38.7239 162.435 38.7239C145.306 38.7239 129.484 41.6245 114.968 47.4259C100.742 53.2272 88.2581 61.4941 77.5161 72.2266C66.7742 82.669 58.3548 94.9968 52.2581 109.21C46.4516 123.423 43.5484 138.942 43.5484 155.766C43.5484 172.59 46.4516 188.108 52.2581 202.321C58.3548 216.535 66.7742 229.008 77.5161 239.74C88.2581 250.182 100.742 258.304 114.968 264.106C129.484 269.907 145.306 272.808 162.435 272.808Z" fill="#BDB7A9"/>
<path d="M161.072 166.24C158.64 166.24 156.448 165.696 154.496 164.608C152.544 163.488 151.008 161.952 149.888 160C148.768 158.048 148.208 155.84 148.208 153.376C148.208 150.912 148.768 148.704 149.888 146.752C151.008 144.8 152.544 143.28 154.496 142.192C156.448 141.104 158.64 140.56 161.072 140.56C163.504 140.56 165.696 141.104 167.648 142.192C169.6 143.28 171.12 144.8 172.208 146.752C173.328 148.704 173.888 150.912 173.888 153.376C173.888 155.84 173.328 158.048 172.208 160C171.12 161.952 169.6 163.488 167.648 164.608C165.696 165.696 163.504 166.24 161.072 166.24ZM161.072 163.216C162.864 163.216 164.464 162.816 165.872 162.016C167.312 161.184 168.432 160.016 169.232 158.512C170.032 157.008 170.432 155.296 170.432 153.376C170.432 151.456 170.032 149.744 169.232 148.24C168.432 146.736 167.312 145.584 165.872 144.784C164.464 143.952 162.864 143.536 161.072 143.536C159.28 143.536 157.664 143.952 156.224 144.784C154.816 145.584 153.696 146.736 152.864 148.24C152.064 149.744 151.664 151.456 151.664 153.376C151.664 155.296 152.064 157.008 152.864 158.512C153.696 160.016 154.816 161.184 156.224 162.016C157.664 162.816 159.28 163.216 161.072 163.216Z" fill="#BDB7A9"/>
<path d="M154.496 164.608L148.026 175.884L148.096 175.924L148.167 175.963L154.496 164.608ZM149.888 160L138.612 166.47L138.612 166.47L149.888 160ZM149.888 146.752L138.612 140.282L138.612 140.282L149.888 146.752ZM154.496 142.192L148.167 130.837L148.167 130.837L154.496 142.192ZM167.648 142.192L173.977 130.837L173.977 130.837L167.648 142.192ZM172.208 146.752L160.853 153.081L160.892 153.152L160.932 153.222L172.208 146.752ZM172.208 160L160.932 153.53L160.892 153.6L160.853 153.671L172.208 160ZM167.648 164.608L173.977 175.963L174.048 175.924L174.118 175.884L167.648 164.608ZM165.872 162.016L172.294 173.319L172.335 173.296L172.376 173.272L165.872 162.016ZM169.232 158.512L180.709 164.617L180.709 164.617L169.232 158.512ZM169.232 148.24L180.709 142.135L180.709 142.135L169.232 148.24ZM165.872 144.784L159.259 155.976L159.407 156.064L159.559 156.148L165.872 144.784ZM156.224 144.784L162.646 156.087L162.687 156.064L162.728 156.04L156.224 144.784ZM152.864 148.24L141.489 141.947L141.437 142.041L141.387 142.135L152.864 148.24ZM152.864 158.512L141.387 164.617L141.437 164.711L141.489 164.805L152.864 158.512ZM156.224 162.016L149.611 173.208L149.759 173.296L149.911 173.38L156.224 162.016ZM161.072 166.24V153.24C160.949 153.24 160.864 153.233 160.812 153.227C160.76 153.221 160.737 153.215 160.735 153.215C160.734 153.215 160.747 153.218 160.769 153.226C160.79 153.235 160.81 153.244 160.825 153.253L154.496 164.608L148.167 175.963C152.222 178.224 156.625 179.24 161.072 179.24V166.24ZM154.496 164.608L160.966 153.332C160.953 153.325 160.962 153.329 160.986 153.347C161.01 153.365 161.04 153.391 161.072 153.424C161.105 153.456 161.131 153.486 161.149 153.51C161.167 153.534 161.171 153.543 161.164 153.53L149.888 160L138.612 166.47C140.88 170.422 144.074 173.616 148.026 175.884L154.496 164.608ZM149.888 160L161.164 153.53C161.179 153.556 161.194 153.587 161.207 153.62C161.22 153.653 161.227 153.676 161.229 153.684C161.231 153.692 161.226 153.675 161.221 153.629C161.215 153.582 161.208 153.499 161.208 153.376H148.208H135.208C135.208 157.889 136.257 162.365 138.612 166.47L149.888 160ZM148.208 153.376H161.208C161.208 153.253 161.215 153.17 161.221 153.123C161.226 153.077 161.231 153.06 161.229 153.068C161.227 153.076 161.22 153.099 161.207 153.132C161.194 153.165 161.179 153.196 161.164 153.222L149.888 146.752L138.612 140.282C136.257 144.387 135.208 148.863 135.208 153.376H148.208ZM149.888 146.752L161.164 153.222C161.165 153.219 161.122 153.291 161.024 153.388C160.926 153.486 160.844 153.537 160.825 153.547L154.496 142.192L148.167 130.837C144.138 133.082 140.898 136.298 138.612 140.282L149.888 146.752ZM154.496 142.192L160.825 153.547C160.81 153.556 160.79 153.565 160.769 153.574C160.747 153.582 160.734 153.585 160.735 153.585C160.737 153.585 160.76 153.579 160.812 153.573C160.864 153.567 160.949 153.56 161.072 153.56V140.56V127.56C156.625 127.56 152.222 128.576 148.167 130.837L154.496 142.192ZM161.072 140.56V153.56C161.195 153.56 161.28 153.567 161.332 153.573C161.384 153.579 161.407 153.585 161.409 153.585C161.41 153.585 161.397 153.582 161.375 153.574C161.354 153.565 161.334 153.556 161.319 153.547L167.648 142.192L173.977 130.837C169.922 128.576 165.519 127.56 161.072 127.56V140.56ZM167.648 142.192L161.319 153.547C161.287 153.529 161.183 153.463 161.06 153.34C160.937 153.217 160.871 153.113 160.853 153.081L172.208 146.752L183.563 140.423C181.299 136.361 178.039 133.101 173.977 130.837L167.648 142.192ZM172.208 146.752L160.932 153.222C160.917 153.196 160.902 153.165 160.889 153.132C160.876 153.099 160.869 153.076 160.867 153.068C160.865 153.06 160.87 153.077 160.875 153.123C160.881 153.17 160.888 153.253 160.888 153.376H173.888H186.888C186.888 148.863 185.839 144.387 183.484 140.282L172.208 146.752ZM173.888 153.376H160.888C160.888 153.499 160.881 153.582 160.875 153.629C160.87 153.675 160.865 153.692 160.867 153.684C160.869 153.676 160.876 153.653 160.889 153.62C160.902 153.587 160.917 153.556 160.932 153.53L172.208 160L183.484 166.47C185.839 162.365 186.888 157.889 186.888 153.376H173.888ZM172.208 160L160.853 153.671C160.863 153.652 160.914 153.57 161.012 153.472C161.109 153.374 161.181 153.331 161.178 153.332L167.648 164.608L174.118 175.884C178.102 173.598 181.318 170.358 183.563 166.329L172.208 160ZM167.648 164.608L161.319 153.253C161.334 153.244 161.354 153.235 161.375 153.226C161.397 153.218 161.41 153.215 161.409 153.215C161.407 153.215 161.384 153.221 161.332 153.227C161.28 153.233 161.195 153.24 161.072 153.24V166.24V179.24C165.519 179.24 169.922 178.224 173.977 175.963L167.648 164.608ZM161.072 163.216V176.216C164.87 176.216 168.725 175.347 172.294 173.319L165.872 162.016L159.45 150.713C159.79 150.52 160.14 150.385 160.463 150.304C160.779 150.225 160.996 150.216 161.072 150.216V163.216ZM165.872 162.016L172.376 173.272C175.976 171.192 178.796 168.215 180.709 164.617L169.232 158.512L157.755 152.407C157.887 152.159 158.098 151.842 158.409 151.518C158.721 151.193 159.056 150.94 159.368 150.76L165.872 162.016ZM169.232 158.512L180.709 164.617C182.63 161.005 183.432 157.151 183.432 153.376H170.432H157.432C157.432 153.431 157.427 153.34 157.473 153.142C157.521 152.938 157.609 152.68 157.755 152.407L169.232 158.512ZM170.432 153.376H183.432C183.432 149.601 182.63 145.747 180.709 142.135L169.232 148.24L157.755 154.345C157.609 154.072 157.521 153.814 157.473 153.61C157.427 153.412 157.432 153.321 157.432 153.376H170.432ZM169.232 148.24L180.709 142.135C178.774 138.496 175.896 135.481 172.185 133.42L165.872 144.784L159.559 156.148C159.197 155.947 158.818 155.667 158.471 155.31C158.126 154.956 157.896 154.61 157.755 154.345L169.232 148.24ZM165.872 144.784L172.485 133.592C168.886 131.465 164.961 130.536 161.072 130.536V143.536V156.536C160.956 156.536 160.698 156.522 160.345 156.43C159.984 156.336 159.61 156.184 159.259 155.976L165.872 144.784ZM161.072 143.536V130.536C157.179 130.536 153.29 131.465 149.72 133.528L156.224 144.784L162.728 156.04C162.422 156.217 162.088 156.352 161.757 156.438C161.431 156.521 161.189 156.536 161.072 156.536V143.536ZM156.224 144.784L149.802 133.481C146.184 135.537 143.405 138.483 141.489 141.947L152.864 148.24L164.239 154.533C164.135 154.721 163.948 155.003 163.649 155.31C163.346 155.621 163.001 155.885 162.646 156.087L156.224 144.784ZM152.864 148.24L141.387 142.135C139.466 145.747 138.664 149.601 138.664 153.376H151.664H164.664C164.664 153.321 164.669 153.412 164.623 153.61C164.575 153.814 164.487 154.072 164.341 154.345L152.864 148.24ZM151.664 153.376H138.664C138.664 157.151 139.466 161.005 141.387 164.617L152.864 158.512L164.341 152.407C164.487 152.68 164.575 152.938 164.623 153.142C164.669 153.34 164.664 153.431 164.664 153.376H151.664ZM152.864 158.512L141.489 164.805C143.383 168.23 146.103 171.136 149.611 173.208L156.224 162.016L162.837 150.824C163.141 151.003 163.443 151.239 163.711 151.518C163.976 151.795 164.145 152.048 164.239 152.219L152.864 158.512ZM156.224 162.016L149.911 173.38C153.449 175.346 157.27 176.216 161.072 176.216V163.216V150.216C161.149 150.216 161.351 150.225 161.64 150.297C161.934 150.37 162.243 150.489 162.537 150.652L156.224 162.016Z" fill="#BDB7A9"/>
</svg>
