<svg width="29" height="32" viewBox="0 0 29 32" fill="none" xmlns="http://www.w3.org/2000/svg">
<path d="M22.5556 0H6.44444C2.9 0 0 2.88 0 6.4V25.6C0 29.12 2.9 32 6.44444 32H22.5556C26.1 32 29 29.12 29 25.6V6.4C29 2.88 26.1 0 22.5556 0ZM12.6633 25.824C12.4217 26.064 12.1156 26.176 11.8094 26.176C11.5033 26.176 11.1972 26.064 10.9556 25.824L9.90833 24.784L8.90944 25.776C8.66778 26.016 8.36167 26.128 8.05556 26.128C7.74944 26.128 7.44333 26.016 7.20167 25.776C6.73444 25.312 6.73444 24.544 7.20167 24.08L8.20056 23.088L7.25 22.144C6.78278 21.68 6.78278 20.912 7.25 20.448C7.71722 19.984 8.49056 19.984 8.95778 20.448L9.90833 21.392L10.9072 20.4C11.3744 19.936 12.1478 19.936 12.615 20.4C13.0822 20.864 13.0822 21.632 12.615 22.096L11.6161 23.088L12.6633 24.128C13.1306 24.592 13.1306 25.36 12.6633 25.824ZM18.5117 26.384C17.6256 26.384 16.9006 25.68 16.9006 24.8V24.768C16.9006 23.888 17.6256 23.168 18.5117 23.168C19.3978 23.168 20.1228 23.888 20.1228 24.768C20.1228 25.648 19.3978 26.384 18.5117 26.384ZM21.7661 22.928C20.88 22.928 20.1389 22.208 20.1389 21.328C20.1389 20.448 20.8478 19.728 21.7339 19.728H21.7661C22.6522 19.728 23.3772 20.448 23.3772 21.328C23.3772 22.208 22.6522 22.928 21.7661 22.928ZM24.1667 11.6C24.1667 13.136 22.8939 14.4 21.3472 14.4H7.65278C6.10611 14.4 4.83333 13.136 4.83333 11.6V7.6C4.83333 6.064 6.10611 4.8 7.65278 4.8H21.3472C22.8939 4.8 24.1667 6.064 24.1667 7.6V11.6Z" fill="#BDB7A9"/>
</svg>
