<svg width="512" height="512" viewBox="0 0 512 512" fill="none" xmlns="http://www.w3.org/2000/svg">
<rect width="512" height="512" rx="16" fill="#0C0C0C"/>
<path d="M256.435 411.531C233.21 411.531 211.581 407.616 191.548 399.784C171.806 391.952 154.677 381.074 140.161 367.151C125.645 352.938 114.323 336.404 106.194 317.55C98.0645 298.696 94 278.101 94 255.766C94 233.431 98.0645 212.836 106.194 193.982C114.323 175.127 125.645 158.738 140.161 144.815C154.677 130.602 171.806 119.579 191.548 111.748C211.29 103.916 232.919 100 256.435 100C279.661 100 301 103.916 320.452 111.748C340.194 119.289 357.323 130.167 371.839 144.38C386.645 158.303 397.968 174.692 405.806 193.546C413.935 212.401 418 233.141 418 255.766C418 278.391 413.935 299.131 405.806 317.985C397.968 336.839 386.645 353.373 371.839 367.586C357.323 381.51 340.194 392.387 320.452 400.219C301 407.761 279.661 411.531 256.435 411.531ZM256.435 372.808C273.274 372.808 288.806 369.907 303.032 364.106C317.548 358.304 330.032 350.182 340.484 339.74C351.226 329.008 359.5 316.535 365.306 302.321C371.403 288.108 374.452 272.59 374.452 255.766C374.452 238.942 371.403 223.423 365.306 209.21C359.5 194.997 351.226 182.669 340.484 172.227C330.032 161.494 317.548 153.227 303.032 147.426C288.806 141.625 273.274 138.724 256.435 138.724C239.306 138.724 223.484 141.625 208.968 147.426C194.742 153.227 182.258 161.494 171.516 172.227C160.774 182.669 152.355 194.997 146.258 209.21C140.452 223.423 137.548 238.942 137.548 255.766C137.548 272.59 140.452 288.108 146.258 302.321C152.355 316.535 160.774 329.008 171.516 339.74C182.258 350.182 194.742 358.304 208.968 364.106C223.484 369.907 239.306 372.808 256.435 372.808Z" fill="#BDB7A9"/>
<path d="M255.072 266.24C252.64 266.24 250.448 265.696 248.496 264.608C246.544 263.488 245.008 261.952 243.888 260C242.768 258.048 242.208 255.84 242.208 253.376C242.208 250.912 242.768 248.704 243.888 246.752C245.008 244.8 246.544 243.28 248.496 242.192C250.448 241.104 252.64 240.56 255.072 240.56C257.504 240.56 259.696 241.104 261.648 242.192C263.6 243.28 265.12 244.8 266.208 246.752C267.328 248.704 267.888 250.912 267.888 253.376C267.888 255.84 267.328 258.048 266.208 260C265.12 261.952 263.6 263.488 261.648 264.608C259.696 265.696 257.504 266.24 255.072 266.24ZM255.072 263.216C256.864 263.216 258.464 262.816 259.872 262.016C261.312 261.184 262.432 260.016 263.232 258.512C264.032 257.008 264.432 255.296 264.432 253.376C264.432 251.456 264.032 249.744 263.232 248.24C262.432 246.736 261.312 245.584 259.872 244.784C258.464 243.952 256.864 243.536 255.072 243.536C253.28 243.536 251.664 243.952 250.224 244.784C248.816 245.584 247.696 246.736 246.864 248.24C246.064 249.744 245.664 251.456 245.664 253.376C245.664 255.296 246.064 257.008 246.864 258.512C247.696 260.016 248.816 261.184 250.224 262.016C251.664 262.816 253.28 263.216 255.072 263.216Z" fill="#BDB7A9"/>
<path d="M248.496 264.608L242.026 275.884L242.096 275.924L242.167 275.963L248.496 264.608ZM243.888 260L232.612 266.47L232.612 266.47L243.888 260ZM243.888 246.752L232.612 240.282L232.612 240.282L243.888 246.752ZM248.496 242.192L242.167 230.837L242.167 230.837L248.496 242.192ZM261.648 242.192L267.977 230.837L267.977 230.837L261.648 242.192ZM266.208 246.752L254.853 253.081L254.892 253.152L254.932 253.222L266.208 246.752ZM266.208 260L254.932 253.53L254.892 253.6L254.853 253.671L266.208 260ZM261.648 264.608L267.977 275.963L268.048 275.924L268.118 275.884L261.648 264.608ZM259.872 262.016L266.294 273.319L266.335 273.296L266.376 273.272L259.872 262.016ZM263.232 258.512L274.709 264.617L274.709 264.617L263.232 258.512ZM263.232 248.24L274.709 242.135L274.709 242.135L263.232 248.24ZM259.872 244.784L253.259 255.976L253.407 256.064L253.559 256.148L259.872 244.784ZM250.224 244.784L256.646 256.087L256.687 256.064L256.728 256.04L250.224 244.784ZM246.864 248.24L235.489 241.947L235.437 242.041L235.387 242.135L246.864 248.24ZM246.864 258.512L235.387 264.617L235.437 264.711L235.489 264.805L246.864 258.512ZM250.224 262.016L243.611 273.208L243.759 273.296L243.911 273.38L250.224 262.016ZM255.072 266.24V253.24C254.949 253.24 254.864 253.233 254.812 253.227C254.76 253.221 254.737 253.215 254.735 253.215C254.734 253.215 254.747 253.218 254.769 253.226C254.79 253.235 254.81 253.244 254.825 253.253L248.496 264.608L242.167 275.963C246.222 278.224 250.625 279.24 255.072 279.24V266.24ZM248.496 264.608L254.966 253.332C254.953 253.325 254.962 253.329 254.986 253.347C255.01 253.365 255.04 253.391 255.072 253.424C255.105 253.456 255.131 253.486 255.149 253.51C255.167 253.534 255.171 253.543 255.164 253.53L243.888 260L232.612 266.47C234.88 270.422 238.074 273.616 242.026 275.884L248.496 264.608ZM243.888 260L255.164 253.53C255.179 253.556 255.194 253.587 255.207 253.62C255.22 253.653 255.227 253.676 255.229 253.684C255.231 253.692 255.226 253.675 255.221 253.629C255.215 253.582 255.208 253.499 255.208 253.376H242.208H229.208C229.208 257.889 230.257 262.365 232.612 266.47L243.888 260ZM242.208 253.376H255.208C255.208 253.253 255.215 253.17 255.221 253.123C255.226 253.077 255.231 253.06 255.229 253.068C255.227 253.076 255.22 253.099 255.207 253.132C255.194 253.165 255.179 253.196 255.164 253.222L243.888 246.752L232.612 240.282C230.257 244.387 229.208 248.863 229.208 253.376H242.208ZM243.888 246.752L255.164 253.222C255.165 253.219 255.122 253.291 255.024 253.388C254.926 253.486 254.844 253.537 254.825 253.547L248.496 242.192L242.167 230.837C238.138 233.082 234.898 236.298 232.612 240.282L243.888 246.752ZM248.496 242.192L254.825 253.547C254.81 253.556 254.79 253.565 254.769 253.574C254.747 253.582 254.734 253.585 254.735 253.585C254.737 253.585 254.76 253.579 254.812 253.573C254.864 253.567 254.949 253.56 255.072 253.56V240.56V227.56C250.625 227.56 246.222 228.576 242.167 230.837L248.496 242.192ZM255.072 240.56V253.56C255.195 253.56 255.28 253.567 255.332 253.573C255.384 253.579 255.407 253.585 255.409 253.585C255.41 253.585 255.397 253.582 255.375 253.574C255.354 253.565 255.334 253.556 255.319 253.547L261.648 242.192L267.977 230.837C263.922 228.576 259.519 227.56 255.072 227.56V240.56ZM261.648 242.192L255.319 253.547C255.287 253.529 255.183 253.463 255.06 253.34C254.937 253.217 254.871 253.113 254.853 253.081L266.208 246.752L277.563 240.423C275.299 236.361 272.039 233.101 267.977 230.837L261.648 242.192ZM266.208 246.752L254.932 253.222C254.917 253.196 254.902 253.165 254.889 253.132C254.876 253.099 254.869 253.076 254.867 253.068C254.865 253.06 254.87 253.077 254.875 253.123C254.881 253.17 254.888 253.253 254.888 253.376H267.888H280.888C280.888 248.863 279.839 244.387 277.484 240.282L266.208 246.752ZM267.888 253.376H254.888C254.888 253.499 254.881 253.582 254.875 253.629C254.87 253.675 254.865 253.692 254.867 253.684C254.869 253.676 254.876 253.653 254.889 253.62C254.902 253.587 254.917 253.556 254.932 253.53L266.208 260L277.484 266.47C279.839 262.365 280.888 257.889 280.888 253.376H267.888ZM266.208 260L254.853 253.671C254.863 253.652 254.914 253.57 255.012 253.472C255.109 253.374 255.181 253.331 255.178 253.332L261.648 264.608L268.118 275.884C272.102 273.598 275.318 270.358 277.563 266.329L266.208 260ZM261.648 264.608L255.319 253.253C255.334 253.244 255.354 253.235 255.375 253.226C255.397 253.218 255.41 253.215 255.409 253.215C255.407 253.215 255.384 253.221 255.332 253.227C255.28 253.233 255.195 253.24 255.072 253.24V266.24V279.24C259.519 279.24 263.922 278.224 267.977 275.963L261.648 264.608ZM255.072 263.216V276.216C258.87 276.216 262.725 275.347 266.294 273.319L259.872 262.016L253.45 250.713C253.79 250.52 254.14 250.385 254.463 250.304C254.779 250.225 254.996 250.216 255.072 250.216V263.216ZM259.872 262.016L266.376 273.272C269.976 271.192 272.796 268.215 274.709 264.617L263.232 258.512L251.755 252.407C251.887 252.159 252.098 251.842 252.409 251.518C252.721 251.193 253.056 250.94 253.368 250.76L259.872 262.016ZM263.232 258.512L274.709 264.617C276.63 261.005 277.432 257.151 277.432 253.376H264.432H251.432C251.432 253.431 251.427 253.34 251.473 253.142C251.521 252.938 251.609 252.68 251.755 252.407L263.232 258.512ZM264.432 253.376H277.432C277.432 249.601 276.63 245.747 274.709 242.135L263.232 248.24L251.755 254.345C251.609 254.072 251.521 253.814 251.473 253.61C251.427 253.412 251.432 253.321 251.432 253.376H264.432ZM263.232 248.24L274.709 242.135C272.774 238.496 269.896 235.481 266.185 233.42L259.872 244.784L253.559 256.148C253.197 255.947 252.818 255.667 252.471 255.31C252.126 254.956 251.896 254.61 251.755 254.345L263.232 248.24ZM259.872 244.784L266.485 233.592C262.886 231.465 258.961 230.536 255.072 230.536V243.536V256.536C254.956 256.536 254.698 256.522 254.345 256.43C253.984 256.336 253.61 256.184 253.259 255.976L259.872 244.784ZM255.072 243.536V230.536C251.179 230.536 247.29 231.465 243.72 233.528L250.224 244.784L256.728 256.04C256.422 256.217 256.088 256.352 255.757 256.438C255.431 256.521 255.189 256.536 255.072 256.536V243.536ZM250.224 244.784L243.802 233.481C240.184 235.537 237.405 238.483 235.489 241.947L246.864 248.24L258.239 254.533C258.135 254.721 257.948 255.003 257.649 255.31C257.346 255.621 257.001 255.885 256.646 256.087L250.224 244.784ZM246.864 248.24L235.387 242.135C233.466 245.747 232.664 249.601 232.664 253.376H245.664H258.664C258.664 253.321 258.669 253.412 258.623 253.61C258.575 253.814 258.487 254.072 258.341 254.345L246.864 248.24ZM245.664 253.376H232.664C232.664 257.151 233.466 261.005 235.387 264.617L246.864 258.512L258.341 252.407C258.487 252.68 258.575 252.938 258.623 253.142C258.669 253.34 258.664 253.431 258.664 253.376H245.664ZM246.864 258.512L235.489 264.805C237.383 268.23 240.103 271.136 243.611 273.208L250.224 262.016L256.837 250.824C257.141 251.003 257.443 251.239 257.711 251.518C257.976 251.795 258.145 252.048 258.239 252.219L246.864 258.512ZM250.224 262.016L243.911 273.38C247.449 275.346 251.27 276.216 255.072 276.216V263.216V250.216C255.149 250.216 255.351 250.225 255.64 250.297C255.934 250.37 256.243 250.489 256.537 250.652L250.224 262.016Z" fill="#BDB7A9"/>
</svg>
