<svg width="21" height="24" viewBox="0 0 21 24" fill="none" xmlns="http://www.w3.org/2000/svg">
<path d="M10.4384 24C9.22154 24 8.01583 23.6427 7.06689 22.9394L2.26631 19.3557C0.993603 18.4068 0 16.4307 0 14.8454V6.55052C0 4.83126 1.26156 3.00034 2.88035 2.39748L8.45122 0.309803C9.55647 -0.103268 11.2981 -0.103268 12.4033 0.309803L17.9854 2.39748C19.6042 3.00034 20.8657 4.83126 20.8657 6.55052V14.8454C20.8657 16.4307 19.8721 18.4068 18.5994 19.3557L13.7988 22.9394C12.861 23.6427 11.6553 24 10.4384 24ZM9.04292 1.87277L3.47205 3.96045C2.51194 4.3177 1.67461 5.52343 1.67461 6.55052V14.8454C1.67461 15.906 2.42262 17.3908 3.25993 18.016L8.06047 21.5997C9.34434 22.5598 11.5213 22.5598 12.8052 21.5997L17.6058 18.016C18.4543 17.3797 19.1911 15.8949 19.1911 14.8454V6.55052C19.1911 5.53459 18.3538 4.32886 17.3937 3.96045L11.8228 1.87277C11.0859 1.59367 9.79091 1.59367 9.04292 1.87277Z" fill="#292D32"/>
<path d="M10.437 11.6193C10.4146 11.6193 10.3923 11.6193 10.3588 11.6193C8.74001 11.5747 7.55664 10.3355 7.55664 8.82832C7.55664 7.28768 8.81816 6.02612 10.3588 6.02612C11.8994 6.02612 13.161 7.28768 13.161 8.82832C13.1498 10.3466 11.9664 11.5747 10.4593 11.6305C10.4481 11.6193 10.4481 11.6193 10.437 11.6193ZM10.3588 7.70074C9.73361 7.70074 9.23125 8.20313 9.23125 8.82832C9.23125 9.44234 9.71131 9.93354 10.3142 9.95587C10.3142 9.95587 10.37 9.95587 10.437 9.95587C11.0287 9.92238 11.4864 9.43118 11.4864 8.82832C11.4976 8.20313 10.984 7.70074 10.3588 7.70074Z" fill="#292D32"/>
<path d="M10.4395 17.9602C9.4794 17.9602 8.50813 17.7034 7.76014 17.201C7.01215 16.7098 6.58789 15.9842 6.58789 15.2138C6.58789 14.4435 7.01215 13.7178 7.76014 13.2155C9.26729 12.2107 11.6229 12.2219 13.1189 13.2155C13.8669 13.7067 14.2911 14.4323 14.2911 15.2027C14.2911 15.973 13.8669 16.6987 13.1189 17.201C12.3709 17.7034 11.3996 17.9602 10.4395 17.9602ZM8.68674 14.5998C8.40764 14.7784 8.25134 15.0017 8.2625 15.2027C8.2625 15.4036 8.41881 15.6269 8.68674 15.8055C9.62453 16.4307 11.2545 16.4307 12.1923 15.8055C12.4714 15.6269 12.6277 15.4036 12.6277 15.2027C12.6277 15.0017 12.4714 14.7784 12.2034 14.5998C11.2656 13.9858 9.62453 13.9858 8.68674 14.5998Z" fill="#292D32"/>
</svg>
