<svg width="26" height="24" viewBox="0 0 26 24" fill="none" xmlns="http://www.w3.org/2000/svg">
<path d="M12.988 16.4115C10.5505 16.4115 8.57227 14.4332 8.57227 11.9958C8.57227 9.55831 10.5505 7.58008 12.988 7.58008C15.4254 7.58008 17.4036 9.55831 17.4036 11.9958C17.4036 14.4332 15.4254 16.4115 12.988 16.4115ZM12.988 9.34635C11.5278 9.34635 10.3385 10.5356 10.3385 11.9958C10.3385 13.4559 11.5278 14.6452 12.988 14.6452C14.4481 14.6452 15.6374 13.4559 15.6374 11.9958C15.6374 10.5356 14.4481 9.34635 12.988 9.34635Z" fill="#BDB7A9"/>
<path d="M16.7682 23.9952C16.5209 23.9952 16.2737 23.9599 16.0264 23.901C15.2963 23.7008 14.684 23.2416 14.2954 22.594L14.1541 22.3584C13.4594 21.1574 12.5056 21.1574 11.8109 22.3584L11.6813 22.5822C11.2928 23.2416 10.6805 23.7126 9.9504 23.901C9.20856 24.1012 8.44317 23.9952 7.79554 23.6066L5.77021 22.4409C5.05192 22.0287 4.53382 21.3576 4.31009 20.5451C4.09813 19.7326 4.20411 18.8965 4.61624 18.1783C4.95772 17.5777 5.05192 17.0361 4.85175 16.6946C4.65157 16.3531 4.14523 16.1529 3.4505 16.1529C1.73132 16.1529 0.330078 14.7517 0.330078 13.0325V10.9601C0.330078 9.2409 1.73132 7.83966 3.4505 7.83966C4.14523 7.83966 4.65157 7.63948 4.85175 7.298C5.05192 6.95652 4.9695 6.41486 4.61624 5.81433C4.20411 5.09604 4.09813 4.24823 4.31009 3.44752C4.52204 2.63503 5.04015 1.96385 5.77021 1.55172L7.80731 0.385974C9.13791 -0.402962 10.8924 0.0562693 11.6931 1.41041L11.8344 1.64592C12.5292 2.84699 13.4829 2.84699 14.1777 1.64592L14.3072 1.42219C15.1079 0.0562693 16.8624 -0.402962 18.2048 0.397749L20.2301 1.56349C20.9484 1.97562 21.4665 2.64681 21.6902 3.45929C21.9022 4.27178 21.7962 5.10782 21.3841 5.82611C21.0426 6.42664 20.9484 6.9683 21.1486 7.30978C21.3488 7.65126 21.8551 7.85143 22.5498 7.85143C24.269 7.85143 25.6703 9.25268 25.6703 10.9719V13.0443C25.6703 14.7635 24.269 16.1647 22.5498 16.1647C21.8551 16.1647 21.3488 16.3649 21.1486 16.7064C20.9484 17.0478 21.0308 17.5895 21.3841 18.19C21.7962 18.9083 21.914 19.7561 21.6902 20.5568C21.4783 21.3693 20.9602 22.0405 20.2301 22.4527L18.193 23.6184C17.7456 23.8657 17.2628 23.9952 16.7682 23.9952ZM12.9884 19.6384C14.0364 19.6384 15.0137 20.2978 15.6849 21.4635L15.8144 21.6873C15.9557 21.9345 16.1912 22.1112 16.4738 22.1818C16.7564 22.2525 17.0391 22.2171 17.2746 22.0758L19.3117 20.8983C19.6178 20.7217 19.8533 20.4273 19.9475 20.0741C20.0417 19.7208 19.9946 19.3558 19.818 19.0496C19.1468 17.8957 19.0644 16.7064 19.5825 15.7997C20.1006 14.893 21.1721 14.3749 22.5145 14.3749C23.2681 14.3749 23.8687 13.7743 23.8687 13.0207V10.9483C23.8687 10.2065 23.2681 9.59416 22.5145 9.59416C21.1721 9.59416 20.1006 9.07605 19.5825 8.16936C19.0644 7.26268 19.1468 6.07338 19.818 4.91942C19.9946 4.61326 20.0417 4.24823 19.9475 3.89498C19.8533 3.54172 19.6296 3.25912 19.3234 3.07071L17.2863 1.90497C16.78 1.59882 16.1088 1.77544 15.8027 2.29355L15.6731 2.51728C15.0019 3.68302 14.0246 4.34243 12.9766 4.34243C11.9286 4.34243 10.9513 3.68302 10.2801 2.51728L10.1506 2.28178C9.85619 1.78722 9.19678 1.61059 8.69045 1.90497L6.65335 3.08249C6.34719 3.25912 6.11169 3.5535 6.01749 3.90675C5.92329 4.26001 5.97039 4.62504 6.14701 4.93119C6.8182 6.08516 6.90063 7.27445 6.38252 8.18114C5.86441 9.08783 4.79287 9.60594 3.4505 9.60594C2.69689 9.60594 2.09635 10.2065 2.09635 10.9601V13.0325C2.09635 13.7743 2.69689 14.3867 3.4505 14.3867C4.79287 14.3867 5.86441 14.9048 6.38252 15.8115C6.90063 16.7181 6.8182 17.9074 6.14701 19.0614C5.97039 19.3676 5.92329 19.7326 6.01749 20.0858C6.11169 20.4391 6.33542 20.7217 6.64157 20.9101L8.67868 22.0758C8.92596 22.2289 9.22033 22.2642 9.49116 22.1936C9.77377 22.1229 10.0093 21.9345 10.1623 21.6873L10.2919 21.4635C10.9631 20.3096 11.9404 19.6384 12.9884 19.6384Z" fill="#BDB7A9"/>
</svg>
