<svg width="24" height="24" viewBox="0 0 24 24" fill="none" xmlns="http://www.w3.org/2000/svg">
<path fill-rule="evenodd" clip-rule="evenodd" d="M11.7883 1.33236e-07C10.6609 1.33236e-07 9.69723 0.816 9.51138 1.92862L9.39939 2.60431C9.36834 2.77392 9.2932 2.93236 9.1815 3.06372C9.0698 3.19508 8.92549 3.29472 8.76308 3.35262C8.56421 3.42701 8.36799 3.50829 8.17477 3.59631C8.01894 3.67039 7.84635 3.70211 7.67436 3.68829C7.50238 3.67446 7.33707 3.61557 7.19508 3.51754L6.63754 3.11877C6.19298 2.80115 5.65014 2.65157 5.10564 2.69665C4.56113 2.74172 4.05028 2.97853 3.664 3.36492L3.36492 3.664C2.97853 4.05028 2.74172 4.56113 2.69665 5.10564C2.65157 5.65014 2.80115 6.19298 3.11877 6.63754L3.51754 7.19508C3.61557 7.33707 3.67446 7.50238 3.68829 7.67436C3.70211 7.84635 3.67039 8.01894 3.59631 8.17477C3.50829 8.36799 3.42701 8.56421 3.35262 8.76308C3.29472 8.92549 3.19508 9.0698 3.06372 9.1815C2.93236 9.2932 2.77392 9.36834 2.60431 9.39939L1.92738 9.51262C1.38882 9.6026 0.899613 9.88064 0.546718 10.2973C0.193823 10.714 0.000105752 11.2423 0 11.7883V12.2117C0 13.3391 0.816 14.3028 1.92862 14.4886L2.60431 14.6006C2.95015 14.6585 3.22954 14.9083 3.35262 15.2369C3.42646 15.4363 3.50892 15.632 3.59631 15.8252C3.67039 15.9811 3.70211 16.1537 3.68829 16.3256C3.67446 16.4976 3.61557 16.6629 3.51754 16.8049L3.11877 17.3625C2.80115 17.807 2.65157 18.3499 2.69665 18.8944C2.74172 19.4389 2.97853 19.9497 3.36492 20.336L3.664 20.6351C4.46154 21.4326 5.71938 21.5372 6.63754 20.8812L7.19508 20.4825C7.33707 20.3844 7.50238 20.3255 7.67436 20.3117C7.84635 20.2979 8.01894 20.3296 8.17477 20.4037C8.368 20.4911 8.56369 20.5723 8.76308 20.6474C9.09169 20.7705 9.34154 21.0498 9.39939 21.3957L9.51262 22.0726C9.69723 23.184 10.6597 24 11.7883 24H12.2117C13.3391 24 14.3028 23.184 14.4886 22.0714L14.6006 21.3957C14.6317 21.2261 14.7068 21.0676 14.8185 20.9363C14.9302 20.8049 15.0745 20.7053 15.2369 20.6474C15.4358 20.5729 15.632 20.4916 15.8252 20.4037C15.9811 20.3296 16.1537 20.2979 16.3256 20.3117C16.4976 20.3255 16.6629 20.3844 16.8049 20.4825L17.3625 20.8812C17.807 21.1988 18.3499 21.3484 18.8944 21.3034C19.4389 21.2583 19.9497 21.0215 20.336 20.6351L20.6351 20.336C21.4326 19.5385 21.5372 18.2806 20.8812 17.3625L20.4825 16.8049C20.3844 16.6629 20.3255 16.4976 20.3117 16.3256C20.2979 16.1537 20.3296 15.9811 20.4037 15.8252C20.4911 15.632 20.5723 15.4363 20.6474 15.2369C20.7705 14.9083 21.0498 14.6585 21.3957 14.6006L22.0726 14.4886C22.6114 14.3986 23.1008 14.1204 23.4537 13.7035C23.8066 13.2865 24.0002 12.7579 24 12.2117V11.7883C24 10.6609 23.184 9.69723 22.0714 9.51138L21.3957 9.39939C21.2261 9.36834 21.0676 9.2932 20.9363 9.1815C20.8049 9.0698 20.7053 8.92549 20.6474 8.76308C20.5729 8.56423 20.4917 8.36801 20.4037 8.17477C20.3296 8.01894 20.2979 7.84635 20.3117 7.67436C20.3255 7.50238 20.3844 7.33707 20.4825 7.19508L20.8812 6.63754C21.1988 6.19298 21.3484 5.65014 21.3034 5.10564C21.2583 4.56113 21.0215 4.05028 20.6351 3.664L20.336 3.36492C19.9497 2.97853 19.4389 2.74172 18.8944 2.69665C18.3499 2.65157 17.807 2.80115 17.3625 3.11877L16.8049 3.51754C16.6629 3.61557 16.4976 3.67446 16.3256 3.68829C16.1537 3.70211 15.9811 3.67039 15.8252 3.59631C15.632 3.5083 15.4358 3.42702 15.2369 3.35262C15.0745 3.29472 14.9302 3.19508 14.8185 3.06372C14.7068 2.93236 14.6317 2.77392 14.6006 2.60431L14.4886 1.92738C14.3986 1.38861 14.1204 0.899241 13.7035 0.546321C13.2865 0.1934 12.7579 -0.000185399 12.2117 1.33236e-07H11.7883ZM12 16.6154C13.2241 16.6154 14.398 16.1291 15.2636 15.2636C16.1291 14.398 16.6154 13.2241 16.6154 12C16.6154 10.7759 16.1291 9.60198 15.2636 8.73643C14.398 7.87088 13.2241 7.38462 12 7.38462C10.7759 7.38462 9.60198 7.87088 8.73643 8.73643C7.87088 9.60198 7.38462 10.7759 7.38462 12C7.38462 13.2241 7.87088 14.398 8.73643 15.2636C9.60198 16.1291 10.7759 16.6154 12 16.6154Z" fill="#BDB7A9"/>
</svg>
