<svg width="33" height="32" viewBox="0 0 33 32" fill="none" xmlns="http://www.w3.org/2000/svg">
<path d="M21.9381 32.0002C21.5705 32.0002 21.23 31.796 21.053 31.4828C20.876 31.1696 20.876 30.7747 21.0666 30.4615L22.4964 28.0786C22.7824 27.5884 23.4088 27.4386 23.8991 27.7245C24.3893 28.0105 24.5391 28.6368 24.2531 29.127L23.8854 29.7398C27.6439 28.8547 30.4627 25.4777 30.4627 21.447C30.4627 20.8888 30.9257 20.4258 31.484 20.4258C32.0423 20.4258 32.5053 20.8888 32.5053 21.447C32.4917 27.2615 27.7528 32.0002 21.9381 32.0002Z" fill="#BDB7A9"/>
<path d="M1.5135 11.5744C0.955183 11.5744 0.492188 11.1114 0.492188 10.5531C0.492188 4.73869 5.23108 0 11.0458 0C11.4134 0 11.7539 0.20426 11.9309 0.517449C12.1079 0.830638 12.1079 1.22553 11.9173 1.53872L10.4874 3.92168C10.2015 4.41189 9.57507 4.56169 9.08484 4.27573C8.59461 3.98978 8.44482 3.36344 8.73078 2.87323L9.09846 2.26045C5.34002 3.14555 2.5212 6.5225 2.5212 10.5531C2.53482 11.1114 2.07182 11.5744 1.5135 11.5744Z" fill="#BDB7A9"/>
<path d="M12.9943 21.5976H9.1678C8.60948 21.5976 8.14648 21.1346 8.14648 20.5763V17.5125C8.14648 16.9542 8.60948 16.4912 9.1678 16.4912H12.9943C14.3561 16.4912 15.5544 17.6895 15.5544 19.0512C15.5544 20.4401 14.3969 21.5976 12.9943 21.5976ZM10.1891 19.555H12.9943C13.2803 19.555 13.5118 19.3235 13.5118 19.0376C13.5118 18.8333 13.2803 18.5201 12.9943 18.5201H10.1891V19.555Z" fill="#BDB7A9"/>
<path d="M13.537 24.661H9.15217C8.59385 24.661 8.13086 24.1981 8.13086 23.6398V20.576C8.13086 20.0177 8.59385 19.5547 9.15217 19.5547H13.537C15.0622 19.5547 16.315 20.6985 16.315 22.1147C16.315 23.5308 15.0758 24.661 13.537 24.661ZM10.1871 22.6185H13.5506C13.9864 22.6185 14.286 22.3461 14.286 22.101C14.286 21.8559 13.9864 21.5836 13.5506 21.5836H10.1871V22.6185Z" fill="#BDB7A9"/>
<path d="M11.619 26.1867C11.0607 26.1867 10.5977 25.7237 10.5977 25.1655V23.6267C10.5977 23.0684 11.0607 22.6055 11.619 22.6055C12.1773 22.6055 12.6403 23.0684 12.6403 23.6267V25.1655C12.6403 25.7374 12.1773 26.1867 11.619 26.1867Z" fill="#BDB7A9"/>
<path d="M11.619 18.5188C11.0607 18.5188 10.5977 18.0558 10.5977 17.4975V15.9588C10.5977 15.4005 11.0607 14.9375 11.619 14.9375C12.1773 14.9375 12.6403 15.4005 12.6403 15.9588V17.4975C12.6403 18.0694 12.1773 18.5188 11.619 18.5188Z" fill="#BDB7A9"/>
<path d="M11.9565 29.9982C6.75463 29.9982 2.5332 25.7634 2.5332 20.5753C2.5332 15.3873 6.76825 11.1523 11.9565 11.1523C12.2016 11.1523 12.4195 11.166 12.6646 11.1796C17.281 11.5336 21.0122 15.2647 21.3526 19.8536C21.3662 20.1531 21.3798 20.3574 21.3798 20.5753C21.3935 25.7634 17.1584 29.9982 11.9565 29.9982ZM11.9565 13.1813C7.88488 13.1813 4.57583 16.4902 4.57583 20.5617C4.57583 24.6331 7.88488 27.942 11.9565 27.942C16.0282 27.942 19.3508 24.6331 19.3508 20.5617C19.3508 20.3847 19.3372 20.2076 19.3236 20.0306C19.0513 16.3813 16.1235 13.4672 12.5285 13.1949C12.3514 13.1949 12.1608 13.1813 11.9565 13.1813Z" fill="#BDB7A9"/>
<path d="M21.0288 20.9434H20.3615C19.8304 20.9434 19.3811 20.5349 19.3402 20.0038C19.0679 16.3954 16.1537 13.4814 12.5451 13.209C12.014 13.1682 11.6055 12.7188 11.6055 12.1878V11.5205C11.6055 6.31888 15.8405 2.09766 21.0424 2.09766C26.2443 2.09766 30.4657 6.33249 30.4657 11.5205C30.4657 16.7086 26.2171 20.9434 21.0288 20.9434ZM13.6345 11.2891C17.4746 11.9835 20.5522 15.0473 21.2467 18.9009C25.223 18.7783 28.4095 15.5103 28.4095 11.5205C28.4095 7.44908 25.1004 4.14019 21.0288 4.14019C17.0252 4.12658 13.757 7.31293 13.6345 11.2891Z" fill="#BDB7A9"/>
</svg>
