<svg width="33" height="32" viewBox="0 0 33 32" fill="none" xmlns="http://www.w3.org/2000/svg">
<path d="M31.4856 20.4258C30.9273 20.4258 30.4643 20.8888 30.4643 21.4471C30.4643 25.4777 27.6592 28.8547 23.8873 29.7398L24.2549 29.1271C24.5409 28.6368 24.3911 28.0105 23.9009 27.7245C23.4243 27.4385 22.7843 27.5883 22.4983 28.0785L21.0686 30.4615C20.8779 30.7747 20.8779 31.1696 21.0549 31.4828C21.232 31.8096 21.5724 32.0002 21.94 32.0002C27.7545 32.0002 32.4932 27.2615 32.4932 21.4471C32.5069 20.8888 32.0439 20.4258 31.4856 20.4258Z" fill="#BDB7A9"/>
<path d="M11.0591 0C5.24458 0 0.505859 4.73872 0.505859 10.5532C0.505859 11.1115 0.968838 11.5745 1.52714 11.5745C2.08543 11.5745 2.54841 11.1115 2.54841 10.5532C2.54841 6.52255 5.35352 3.14553 9.12543 2.26043L8.75777 2.87319C8.47182 3.3634 8.6216 3.98979 9.11182 4.27574C9.58841 4.5617 10.2284 4.41191 10.5144 3.9217L11.9442 1.53872C12.1212 1.22553 12.1348 0.844255 11.9442 0.517447C11.7671 0.204255 11.4267 0 11.0591 0Z" fill="#BDB7A9"/>
<path d="M29.4425 11.5072C29.4425 15.7012 26.3923 19.1599 22.4025 19.7999C22.4025 19.7863 22.4025 19.7863 22.4025 19.7727C22.0076 14.6936 17.8953 10.554 12.748 10.1455C13.388 6.15568 16.8468 3.10547 21.0408 3.10547C25.6842 3.10547 29.4425 6.86377 29.4425 11.5072Z" fill="#BDB7A9"/>
<path d="M13.5218 19.037C13.5218 18.8327 13.2903 18.5195 13.0043 18.5195H10.1992V19.5408H13.0043C13.2903 19.5544 13.5218 19.3229 13.5218 19.037Z" fill="#BDB7A9"/>
<path d="M13.549 21.5967H13.0043H10.1992V22.618H13.5626C13.9984 22.618 14.2979 22.3456 14.2979 22.1005C14.2979 21.8554 13.9848 21.5967 13.549 21.5967Z" fill="#BDB7A9"/>
<path d="M20.3601 19.9228C20.0469 15.7969 16.7516 12.5016 12.6256 12.1884C12.4078 12.1748 12.2035 12.1611 11.972 12.1611C7.32861 12.1611 3.57031 15.9194 3.57031 20.5765C3.57031 25.2199 7.32861 28.9782 11.972 28.9782C16.6154 28.9782 20.3873 25.2199 20.3873 20.5765C20.3873 20.345 20.3737 20.1407 20.3601 19.9228ZM13.5516 24.6616H12.6529V25.179C12.6529 25.7373 12.1899 26.2003 11.6316 26.2003C11.0733 26.2003 10.6103 25.7373 10.6103 25.179V24.6616H9.18053C8.62223 24.6616 8.15925 24.1986 8.15925 23.6403V20.5765V17.5126C8.15925 16.9543 8.62223 16.4913 9.18053 16.4913H10.6103V15.9739C10.6103 15.4156 11.0733 14.9526 11.6316 14.9526C12.1899 14.9526 12.6529 15.4156 12.6529 15.9739V16.4913H13.0069C14.3686 16.4913 15.5669 17.6896 15.5669 19.0513C15.5669 19.4462 15.4716 19.8139 15.3082 20.1543C15.9346 20.6173 16.3295 21.3254 16.3295 22.1152C16.3295 23.5177 15.0903 24.6616 13.5516 24.6616Z" fill="#BDB7A9"/>
</svg>
