<svg width="26" height="24" viewBox="0 0 26 24" fill="none" xmlns="http://www.w3.org/2000/svg">
<path d="M14.1 9.60005H0.9C0.408 9.60005 0 9.19205 0 8.70005C0 8.20805 0.408 7.80005 0.9 7.80005H14.1C14.592 7.80005 15 8.20805 15 8.70005C15 9.19205 14.592 9.60005 14.1 9.60005Z" fill="#292D32"/>
<path d="M8.10078 19.1999H5.70078C5.20878 19.1999 4.80078 18.7919 4.80078 18.2999C4.80078 17.8079 5.20878 17.3999 5.70078 17.3999H8.10078C8.59278 17.3999 9.00078 17.8079 9.00078 18.2999C9.00078 18.7919 8.59278 19.1999 8.10078 19.1999Z" fill="#292D32"/>
<path d="M15.8992 19.1999H11.0992C10.6072 19.1999 10.1992 18.7919 10.1992 18.2999C10.1992 17.8079 10.6072 17.3999 11.0992 17.3999H15.8992C16.3912 17.3999 16.7992 17.8079 16.7992 18.2999C16.7992 18.7919 16.3912 19.1999 15.8992 19.1999Z" fill="#292D32"/>
<path d="M19.572 24H6.228C1.452 24 0 22.56 0 17.832V7.96807C0 3.24007 1.452 1.80005 6.228 1.80005H14.436C14.928 1.80005 15.336 2.20805 15.336 2.70005C15.336 3.19205 14.928 3.60005 14.436 3.60005H6.228C2.46 3.60005 1.8 4.24807 1.8 7.96807V17.832C1.8 21.552 2.46 22.2001 6.228 22.2001H19.572C23.34 22.2001 24 21.552 24 17.832V12.0961C24 11.6041 24.408 11.1961 24.9 11.1961C25.392 11.1961 25.8 11.6041 25.8 12.0961V17.832C25.8 22.56 24.348 24 19.572 24Z" fill="#292D32"/>
<path d="M22.644 6.3H18.9C18.408 6.3 18 5.892 18 5.4V2.4C18 1.908 18.408 1.5 18.9 1.5H22.656C23.94 1.5 25.056 2.616 25.056 3.9C25.044 5.22 23.976 6.3 22.644 6.3ZM19.8 4.5H22.656C22.992 4.5 23.256 4.236 23.256 3.9C23.256 3.636 22.968 3.3 22.656 3.3H19.8V4.5Z" fill="#292D32"/>
<path d="M23.184 9.3H18.9C18.408 9.3 18 8.892 18 8.4V5.4C18 4.908 18.408 4.5 18.9 4.5H23.184C24.624 4.5 25.8 5.58 25.8 6.9C25.8 8.22 24.624 9.3 23.184 9.3ZM19.8 7.5H23.184C23.628 7.5 24 7.224 24 6.9C24 6.576 23.628 6.3 23.184 6.3H19.8V7.5Z" fill="#292D32"/>
<path d="M21.0113 10.8C20.5193 10.8 20.1113 10.392 20.1113 9.9V8.4C20.1113 7.908 20.5193 7.5 21.0113 7.5C21.5033 7.5 21.9113 7.908 21.9113 8.4V9.9C21.9113 10.404 21.5153 10.8 21.0113 10.8Z" fill="#292D32"/>
<path d="M21.0113 3.3C20.5193 3.3 20.1113 2.892 20.1113 2.4V0.9C20.1113 0.408 20.5193 0 21.0113 0C21.5033 0 21.9113 0.408 21.9113 0.9V2.4C21.9113 2.892 21.5153 3.3 21.0113 3.3Z" fill="#292D32"/>
<path d="M20.3288 3.3H17.7008C17.2088 3.3 16.8008 2.892 16.8008 2.4C16.8008 1.908 17.2088 1.5 17.7008 1.5H20.3288C20.8208 1.5 21.2288 1.908 21.2288 2.4C21.2288 2.892 20.8208 3.3 20.3288 3.3Z" fill="#292D32"/>
<path d="M20.3288 9.3H17.7008C17.2088 9.3 16.8008 8.892 16.8008 8.4C16.8008 7.908 17.2088 7.5 17.7008 7.5H20.3288C20.8208 7.5 21.2288 7.908 21.2288 8.4C21.2288 8.892 20.8208 9.3 20.3288 9.3Z" fill="#292D32"/>
</svg>
