<svg width="24" height="24" viewBox="0 0 24 24" fill="none" xmlns="http://www.w3.org/2000/svg">
<path d="M8.5184 11.6845C8.4846 11.6845 8.46207 11.6845 8.42826 11.6845C8.37192 11.6732 8.29305 11.6732 8.22545 11.6845C4.95784 11.5831 2.49023 9.01408 2.49023 5.84789C2.49023 2.62535 5.11559 0 8.33812 0C11.5607 0 14.186 2.62535 14.186 5.84789C14.1747 9.01408 11.6959 11.5831 8.55221 11.6845C8.54094 11.6845 8.52967 11.6845 8.5184 11.6845ZM8.33812 1.69014C6.0508 1.69014 4.18038 3.56056 4.18038 5.84789C4.18038 8.10141 5.93812 9.91549 8.18038 9.99437C8.24798 9.9831 8.39446 9.9831 8.54094 9.99437C10.7494 9.89296 12.4846 8.07887 12.4959 5.84789C12.4959 3.56056 10.6254 1.69014 8.33812 1.69014Z" fill="#292D32"/>
<path d="M16.8344 11.8309C16.8006 11.8309 16.7668 11.8309 16.733 11.8196C16.2711 11.8647 15.7978 11.5379 15.7528 11.076C15.7077 10.614 15.9894 10.1971 16.4514 10.1407C16.5866 10.1295 16.733 10.1295 16.857 10.1295C18.5021 10.0393 19.7866 8.68722 19.7866 7.03088C19.7866 5.31821 18.4006 3.93229 16.688 3.93229C16.226 3.94356 15.8429 3.56046 15.8429 3.09849C15.8429 2.63652 16.226 2.25342 16.688 2.25342C19.3246 2.25342 21.4767 4.40553 21.4767 7.04215C21.4767 9.6337 19.4485 11.7295 16.8683 11.8309C16.857 11.8309 16.8457 11.8309 16.8344 11.8309Z" fill="#292D32"/>
<path d="M8.52958 24.0001C6.32113 24.0001 4.10141 23.4367 2.42254 22.3099C0.856338 21.2733 0 19.8536 0 18.3099C0 16.7663 0.856338 15.3353 2.42254 14.2874C5.80282 12.0451 11.2789 12.0451 14.6366 14.2874C16.1915 15.324 17.0592 16.7437 17.0592 18.2874C17.0592 19.8311 16.2028 21.2621 14.6366 22.3099C12.9465 23.4367 10.738 24.0001 8.52958 24.0001ZM3.35775 15.7071C2.27606 16.4282 1.69014 17.3522 1.69014 18.3212C1.69014 19.279 2.28732 20.2029 3.35775 20.9128C6.16338 22.7944 10.8958 22.7944 13.7014 20.9128C14.7831 20.1916 15.369 19.2677 15.369 18.2987C15.369 17.3409 14.7718 16.417 13.7014 15.7071C10.8958 13.8367 6.16338 13.8367 3.35775 15.7071Z" fill="#292D32"/>
<path d="M18.8623 21.9717C18.4679 21.9717 18.1186 21.7013 18.0397 21.2957C17.9496 20.8337 18.2425 20.3943 18.6933 20.2929C19.4031 20.1464 20.0566 19.8647 20.5637 19.4703C21.2059 18.9858 21.5552 18.3774 21.5552 17.7351C21.5552 17.0929 21.2059 16.4844 20.5749 16.0112C20.0792 15.6281 19.4594 15.3577 18.7271 15.1886C18.2764 15.0872 17.9834 14.6365 18.0848 14.1746C18.1862 13.7238 18.6369 13.4309 19.0989 13.5323C20.0679 13.7464 20.913 14.1295 21.6003 14.6591C22.6482 15.4478 23.2454 16.5633 23.2454 17.7351C23.2454 18.9069 22.6369 20.0224 21.589 20.8224C20.8904 21.3633 20.0116 21.7577 19.0425 21.9492C18.9749 21.9717 18.9186 21.9717 18.8623 21.9717Z" fill="#292D32"/>
</svg>
